<svg width="40" height="40" viewBox="0 0 40 40" fill="none" xmlns="http://www.w3.org/2000/svg">
<mask id="mask0_2120_2629" style="mask-type:alpha" maskUnits="userSpaceOnUse" x="0" y="0" width="40" height="40">
<rect width="40" height="40" fill="#D9D9D9"/>
</mask>
<g mask="url(#mask0_2120_2629)">
<path d="M20 36.6667C17.7223 36.6667 15.5695 36.2292 13.5417 35.3542C11.5139 34.4792 9.7431 33.2847 8.22921 31.7708C6.71532 30.257 5.52087 28.4861 4.64587 26.4583C3.77087 24.4306 3.33337 22.2778 3.33337 20C3.33337 17.6945 3.77087 15.5347 4.64587 13.5208C5.52087 11.507 6.71532 9.74307 8.22921 8.22918C9.7431 6.71529 11.5139 5.52084 13.5417 4.64584C15.5695 3.77084 17.7223 3.33334 20 3.33334C20.4723 3.33334 20.8681 3.49307 21.1875 3.81251C21.507 4.13195 21.6667 4.52779 21.6667 5.00001C21.6667 5.47223 21.507 5.86807 21.1875 6.18751C20.8681 6.50695 20.4723 6.66668 20 6.66668C16.3056 6.66668 13.1598 7.96529 10.5625 10.5625C7.96532 13.1597 6.66671 16.3056 6.66671 20C6.66671 23.6945 7.96532 26.8403 10.5625 29.4375C13.1598 32.0347 16.3056 33.3333 20 33.3333C23.6945 33.3333 26.8403 32.0347 29.4375 29.4375C32.0348 26.8403 33.3334 23.6945 33.3334 20C33.3334 19.5278 33.4931 19.132 33.8125 18.8125C34.132 18.4931 34.5278 18.3333 35 18.3333C35.4723 18.3333 35.8681 18.4931 36.1875 18.8125C36.507 19.132 36.6667 19.5278 36.6667 20C36.6667 22.2778 36.2292 24.4306 35.3542 26.4583C34.4792 28.4861 33.2848 30.257 31.7709 31.7708C30.257 33.2847 28.4931 34.4792 26.4792 35.3542C24.4653 36.2292 22.3056 36.6667 20 36.6667Z" fill="black"/>
</g>
</svg>
