<?xml version="1.0" encoding="UTF-8"?>
<svg id="Capa_2" data-name="Capa 2" xmlns="http://www.w3.org/2000/svg" viewBox="0 0 737.84 1133.86">
  <defs>
    <style>
      .cls-1 {
        fill: #916e29;
      }

      .cls-1, .cls-2 {
        stroke-width: 0px;
      }

      .cls-2 {
        fill: #006178;
      }
    </style>
  </defs>
  <g id="Capa_1-2" data-name="Capa 1">
    <g>
      <path class="cls-2" d="m629.76,111.52C562.7,42.31,470.59,0,368.92,0S174.63,42.31,108.08,111.52C41.01,180.18,0,275.22,0,380.69c0,150.54,172.5,431.79,293.87,629.02,28.74,47.25,54.81,89.54,75.05,124.15,19.69-34.61,45.78-76.9,75.05-124.15,120.85-197.23,293.86-478.48,293.86-629.02,0-105.47-41.52-200.51-108.07-269.17Zm-260.84,517.47c-143.28,0-259.43-119.87-259.43-267.73S225.64,93.53,368.92,93.53s259.43,119.87,259.43,267.73-116.15,267.73-259.43,267.73Z"/>
      <g>
        <path class="cls-1" d="m386.96,390.47c-5.6,4.4-12.57,7.04-20.15,7.04-18.4,0-33.32-15.4-33.32-34.39,0-6.11,1.56-11.84,4.27-16.81l-28.35-25.44c-26.87,71.38-53.73,142.75-80.6,214.13,62.85-39.08,125.7-78.16,188.55-117.24l-30.4-27.28Z"/>
        <path class="cls-1" d="m309.01,320.51l28.75,25.8c5.71-10.48,16.57-17.58,29.05-17.58,18.4,0,33.32,15.4,33.32,34.39,0,11.17-5.18,21.07-13.18,27.35l30,26.92c30.69-76.62,61.38-153.25,92.07-229.88-66.67,44.33-133.35,88.66-200.02,132.99Z"/>
      </g>
    </g>
  </g>
</svg>