<?xml version="1.0" encoding="UTF-8"?>
<svg id="Capa_2" data-name="Capa 2" xmlns="http://www.w3.org/2000/svg" viewBox="0 0 215.52 250">
  <defs>
    <style>
      .cls-1 {
        fill: #906e2a;
      }

      .cls-1, .cls-2 {
        fill-rule: evenodd;
        stroke-width: 0px;
      }

      .cls-2 {
        fill: #006078;
      }
    </style>
  </defs>
  <g id="Capa_1-2" data-name="Capa 1">
    <g>
      <path class="cls-1" d="m56.97,56.24c-.26,4.19-.51,8.38-.77,12.56,1.65-.47,12.11-3.56,11.47-.43-.46,2.24-3.41,4.67-4.91,6.23-1.38,1.44-2.8,2.84-4.26,4.2,2.68-1.03,5.38-2,8.1-2.91,2.06-.69,4.13-1.36,6.24-1.88.78-.19,2.9-.97,3.64-.44,1.94,1.4-8.6,11.72-10.05,13.17,2.04-.95,4.13-1.82,6.26-2.56,1.54-.54,6.28-2.58,7.64-.83,1.45,1.87-2.15,6.16-3.15,7.52-1.43,1.95-2.98,3.82-4.61,5.61,6.77,6.09,14.72,11.51,23.18,14.88,6.21,2.47,12.3,3.1,18.85,1.74,6.73-1.39,13.18-4.06,19.31-7.12,3.6-1.79,7.16-3.73,10.54-5.91-1.4-1.7-2.75-3.44-4.07-5.2-1.88-2.52-4.19-5.27-5.26-8.26-1.05-2.93,2.89-2.36,4.77-2.2,2.73.23,5.46.72,8.14,1.31-1.89-1.32-3.75-2.69-5.57-4.11-2.37-1.85-5.54-3.93-7.1-6.59-1.37-2.34,1.63-1.75,3.02-1.44,3.31.73,6.52,1.97,9.68,3.19,2.31.89,4.61,1.82,6.88,2.8-1.41-1.23-2.78-2.52-4.09-3.85-1.76-1.79-4.14-3.99-4.93-6.46-1.61-5.03,9.21-1.24,11.06-.46-.34-5.21-.68-10.43-1.02-15.64-14.33,3.82-28.66,7.64-42.99,11.46-1.55.41-3.49,1.31-5.1,1.36-1.46.04-3.23-.62-4.66-.89l-25.93-4.96c-6.78-1.3-13.55-2.59-20.33-3.89Z"/>
      <path class="cls-2" d="m210.99,235.55c-1.55.89-3.36,1.57-5.08,2.03-1.01.27-2.68,1.1-3.56.34-.43-.37-.52-1.2-.77-1.68-.4-.76-.96-1.42-1.49-2.1-1.28-1.64-2.62-3.22-4.01-4.76-.66-.73-1.87-2.43-3.04-2.32-1.45.14-1.42,2.16-1.05,3.19,1.16,3.28,4.67,6.14,6.97,8.61-.58.9-3.79.79-4.68.58-1.36-.32-1.49-1.29-2.11-2.4-1.45-2.59-4.39-4.04-6.81-5.56-.88-.56-2.75-2.09-3.9-1.71-1.09.37-1.04,1.76-.7,2.67.52,1.37,2.01,2.33,3.12,3.2,1.47,1.16,2.81,2.42,4.04,3.84-1.76.14-3.52.39-5.28.54-2.13.18-3.9-.99-5.86-1.66-1.82-.62-3.64-1.14-5.43-1.85-2.01-.8-4.12-1.08-6.14-1.78-7.96-2.74-15.76-6.2-23.42-9.68-3.65-1.66-7.23-3.32-11.04-4.62-2.78-.95-7.14-2.83-7.8-6.14-.35-1.75.93-3.63,1.11-5.38.22-2.06.05-4.32-.58-6.29-.55-1.74-1.46-3.35-2.18-5.02-.84-1.94-.09-1.91,1.54-2.13,1.95-.27,4.23-1.36,6.06-2.08,2.11-.83,4.2-1.98,6.14-3.16,1.75-1.07,3.27-2.45,4.66-3.96,1.42-1.53,2.33-3.34,3.7-4.9,5.05,6.23,9.86,12.55,15.23,18.5,2.53,2.81,5.29,5.14,8.41,7.27,1.3.89,2.6,1.91,4.02,2.62,1.78.88,3.76,1.43,5.59,2.24,7,3.09,13.69,6.47,20.22,10.46,3.16,1.93,5.81,4.14,8.6,6.56.87.75,7.96,5.14,5.55,6.52Zm-82.15-51c-1.13.51-2.21,1.18-3.42,1.51.34-2.09,2.29-5.23,4.78-4.89.95.13,1.67.87,1.25,1.89-.38.93-1.81,1.12-2.61,1.48Zm-78.77-56.58c-1.28.71-2.48,1.12-3.23-.4.56-.11,3.09-.45,3.23.4Zm-2.14-4.3c-.99-.3-.2-.62.14-.98.27-.28,1.15-1.27,1.45-1.44,1.36-.72,2.41,1.96,3.06,2.83-1.54-.14-3.16.04-4.66-.41Zm10.6,9.3c-1.88.32-1.67-2.04-1.61-3.23.4.48,3.08,2.98,1.61,3.23Zm6.23-4.07c-2.29.39-3.8-3.58-3.39-5.31.36-1.53,2.14-2.38,3.55-2.61,1.37-.22,3.28.08,3.68,1.66.36,1.4-2.31,6-3.84,6.26Zm54.23,59.85c-1.65.51-3.26.57-4.91,1.07-1.88.56-3.61.51-5.5.9-.77.16-2.83,1.27-3.58,1.02-.74-.25-1.81-2.55-2.23-3.14,3.33-1.39,6.17-3.17,8.36-6.09,1.74-2.32,3.62-5.8,2.52-8.8-1.24-3.38-5.5-4.11-8.35-2.7-1.35.67-2.68,1.5-3.79,2.51-1.27,1.16-1.77,2.43-2.59,3.87-.83,1.45-1.41.64-2.25-.59-.71-1.05-.62-2.12-1.5-3.15-.45-.53-1.15-1.04-1.39-1.73-.15-.43.17-1.2-.12-1.55-.4-.48-.89.08-1.22-.35-.24-.31-.16-1.02-.41-1.41-.22-.22-.46-.41-.73-.57-.32-.16-.38-.36-.18-.6-.26-.48,0-.64-.56-1.22-.86-.91-1.65-1.78-2.26-2.85-.28-.49-.25-1.22-.6-1.64-.48-.58-1.27-.5-1.69-1.22-.37-.64-.12-1.77-.73-2.35-.32-.09-.64-.18-.96-.27-.24-.23-.38-.52-.42-.85-.34-.52-.4-1.12-.83-1.67-.81-1.04-1.9-2.01-2.62-3.11-.75-1.16-.35-1.35.95-1.77,1.18-.37,2.26-.72,3.35-1.36,5.05-2.95,9.84-10.76,1.82-13.15-2.98-.89-5.42-3.27-8.72-2.33-1.43.41-2.79,1.27-3.86,2.3-.74.71-1.42,2.61-2.33,2.97-1.63.65-.94-.98-1.4-1.73-.22-.36-1.11-.77-1.44-1.1-.39-.38-.76-.86-1.03-1.34-.5-.88-.8-1.36-1.52-2.08-.27-.27-1.62-1.66-.4-1.48-.49-1.51.23-1.73,1.22-2.83,1.17-1.29,2.38-3.09,2.38-4.9.01-3.48-4.1-5.04-6.68-2.97-.53.42-3.64,4.47-3,1.89.34-1.39,3.52-5.03,4.99-4.09-1.65-2.41-5.44,3.44-6.33,4.64-.75-1.39-.81-2.48-2.05-3.55-1.01,1.63-.48-.15-.7-.51-.48-.78-.22.11-.48-.17-.33-.35-.84-.62-1.19-1.08-.6.81-.36-.06-.54-.36-.43-.71-.26-1.11-.99-1.73-.53-.45-1.58-1.14-2.29-1.2-.82-.07-1.05.24-1.89,0-1.07-.3-2.41-.75-1.9,1.04.38,1.3,1.9,2.04,2.24,3.37.34,1.34-.98,2.69-1.63,3.78-.82,1.41-1.5,1.29-2.99,1.61-.95.2-2.23.64-1.41,1.8.58.83,1.95.65,2.72,1.14,1.08.69,1.07,2.38,2.45,2.68,1.52.32,2.39-1.37,3.67-1.78.91-.29,3.73-.26,4.45.43.98.93.13,2.72.38,3.88.37,1.72,1.53,1.82,3,1.88,1.81.07,2.44,1.81,3.42,3.19,2.28,3.23,4.26,6.68,6.59,9.86,1.03,1.41,2.54,2.67,3.39,4.2,1.04,1.89-.41,2.98-1.66,4.34-1.63,1.77-2.86,3.79-4.27,5.73-1.26,1.72-2.83,1.29-4.84,1.29.45-.93.99-1.5,2.09-1.39-1.15-1.41-2.08.2-2.83,1.1-1.08,1.29-2.5,1.61-3.89,2.46-.49.3-3.17,2.25-2.36,2.92.09.08,4.53-2.85,5.04-3.12,0,1.08-.24,2.2-.08,3.27.11.79.66,1.61.55,2.43-.22,1.54-2.22,2.76-3.07,3.97-.64.91-.49,1.62-.82,2.59-.3.89-.14.62-.89.89-1.52.56-4.07.26-5.44-.54-.85-.49-1.51-1.27-2.2-1.96-.52-.52-1.83-1.4-1.98-2.12-.25-1.25,2.22-3.56,2.71-4.85,1.38-3.63-.99-6.45-4.67-6.65,1.14-.88,2.54-.22,3.74.12-2.05-2.84-5.54-.5-7.28,1.43-1.19-3-1.76-6.17-2.48-9.3-.49-2.13-2.37-5.94-1.53-8.13.4-1.06,1.55-1.65,2.34-2.39.9-.84,1.67-1.84,2.33-2.87,1.55-2.44,2.44-5.52.31-7.92.65-.11,1.3-.21,1.94-.32-1.05-.99-2.72-.51-4.08-.8-.87-.19-3.36-.07-3.94-.56-.7-.59-.25-3.31-.23-4.12.06-1.88.21-3.69.42-5.56.2-1.77.16-3.67.52-5.41.3-1.41,1.24-1.84,2.33-2.67,2.61-1.98,4.73-4.4,3.84-7.82.32-.05.63-.1.95-.15-1.02-.74-2.34-.47-3.48-.86,1.04-2.94,3.35-8.1,7.09-8.38.13,1.31.04,2.88.93,3.96,1.01,1.24,2.78,1.36,4.14.71,1.24-.6,2.4-1.86,2.97-3.1.39-.84.32-2.27.99-2.94.91-.9,7.17-.36,6.98,1.16-.11.89-1.79,2.38-2.26,3.17-.86,1.44-1.54,3-1.86,4.66-.48,2.52-.2,5.84,2.35,7.16,2.9,1.5,6.43-.41,8.81-2.06,1.31-.91,2.57-1.91,3.76-2.96.64-.56,1.27-1.14,1.83-1.77.41-.47.74-1.23,1.25-1.58,1.2-.83,2.38.58,3.4,1.29,1.66,1.16,3.31,2.26,5.09,3.23,3.61,1.96,6.91,4.55,10.1,7.13,3.21,2.59,6.52,5.26,9.12,8.49-1.57.97-1.29,1.22-1.99,2.95-.5,1.23-1.18,2.27-1.26,3.64-.14,2.36,1.37,4.36,3.67,4.89,1.28.29,2.5.06,3.69-.47.92-.41,1.84-1.41,2.81-1.66,1.79-.46,3.23,2.93,4.23,4.12,4.46,5.31,9.18,10.4,13.38,15.93.47.61,1.85,1.81,1.96,2.62.16,1.16-1.67,2.27-2.42,2.94-.4.35-4.62,4.33-3.2,4.96.4.18,1.59-2.26,1.88-2.47,1.11-.78.27.75.2,1.52-.17,1.92,1.15,2.97,3.01,2.73,1.98-.26,3.74-1.83,4.96-3.3,1.53,1.78,3.93,4.47,4.38,6.85.28,1.52-1.03,5.24,1.42,5.55.37.05,1.73-.96,1.98-.39.21.48-1.25,1.29-1.46,1.45-.9.67-1.45,1.4-2.17,2.21-.85.96-2.02,1.77-2.98,2.68-1.01.97-3.02,3.59-4.35,2.33-.67-.64-.49-1.47-1.57-1.85-.98-.34-2.22.09-3.13.47-1.02.43-4.4,1.98-4.77,3.26-.52,1.76,2.27-.36,2.77-.67-.57,1.44-.88,3.52-2.32,4.36-1.2.7-2.92,1.11-4.23,1.51Zm-19.13-10.88c.96-3.08,6.61-8.58,10.18-6.86-4.16.87-7.46,3.73-10.18,6.86Zm2.11,8.83c-1.39-.78-1.32-3.03-1.8-4.36-.28-.76-.84-1.31-.67-2.15.19-.99,1.45-2.08,2.12-2.79,2.1-2.24,5.8-5.3,9.19-4.78,4.31.65,1.39,6.45-.08,8.44-1.25,1.7-6.07,7.14-8.75,5.64Zm-10.05-3.77c-4.66-.31-9.3-.73-13.9-1.59-1.63-.3-2.99-.26-2.06-2.13.31-.62,2.16-4.5,2.58-4.39.25.07.19,2.73.26,3.04.33,1.37,1.25,2.65,2.81,2.57,2.55-.14,4.19-3.44,5.53-5.21,1.08,1.45,1.85,3.06,2.93,4.48.52.68,2.31,2.26,1.84,3.24Zm-27.32-18.32c-.78,1.8-2.35,3.51-3.45,5.13-.62-1.31-1.05-4.32.41-5.29.56-.37,3.53-.98,3.03.15Zm16.16,5.35c.22-.69.45-1.38.72-2.05.46,1.44.69,1.48-.72,2.05Zm3.99,1.47c.57.96,1.51,1.9,1.36,3.11-.11.91-.94,1.85-1.53,2.49-.97,1.05-3.13,3.07-4.55,1.68-1.18-1.17-.77-4.38-.22-5.7.78-1.88,3.58-3.86,4.93-1.58Zm-2.77-1.97c.32-.13-.36-2.22.28-2.43.55,1.26,1.07,1.6-.28,2.43Zm-8.9-28.2c-.21-.77-.69-.74-.52-1.7.11-.63.61-1.3.99-1.79.75-.99,1.74-1.81,2.81-2.42,2.26-1.3,5.37-1.84,7.39.2-1.89.3-7.7,2.17-7.73,4.76,2.1-.41,3.76-2.52,5.87-3.19,1.73-.55,3.61-.51,5.34.07,4.72,1.58,2.76,5.67.09,8.32-1.58,1.58-3.48,2.75-5.55,3.56-.96.38-1.55.42-2.49.23-.18-.04-.38-.36-.59-.43-.53-.18-.37.42-.81.15-.38-.23-1.18-1.73-1.44-2.15-.41-.68-.6-1.34-1.1-1.96-.5-.62-.75-1.45-1.21-2.02-.22-.27-.84-.26-1-.52-.25-.4.07-.69-.04-1.09Zm-7.25,30.46c1.07-1.87,2.91-3.45,4.33-5.08.09,2.68-1.83,4.52-4.33,5.08Zm1.45.86c2.21-.78,3.43-2.65,3.66-4.91.29-2.87,2.08-4.37,3.17-6.95.42-.99.9-4.24,2.51-3.31.55.32.88,1.52,1.17,2.06.7,1.31,1.49,2.58,2.22,3.87.6,1.05,1.5,2.1,1.24,3.36-.23,1.1-.97,2.27-1.41,3.31-1.03,2.45-2.38,4.71-3.51,7.1-.46.97-.99,3.26-2.39,3.24-1.1,0-.98-1.21-1.7-1.63-.91-.52-1.96.47-2.71.88.87-1.46,2.38-2.29,4.08-2.02-2.04-2.03-3.41.71-5.16,1.32-1.66.58-4.59-2.15-5.99-2.92.53-.9,1.02-2.01,1.93-2.61.87-.57,1.94-.48,2.89-.81Zm-18.01,18.56c.24-1.17.93-1.86,1.36-2.92.5,1.29-.68,2.05-1.36,2.92Zm35.19,7.18c-.12,3.94-.44,7.87-.56,11.81-.05,1.82-.37,3.55-.59,5.35-.18,1.52-.09,3.01-1.04,4.31-1.5,2.05-4.43,2.63-6.7,3.39-1.67.56-3.35,1.06-5,1.68-1.48.56-2.68,1.4-4.09,2.06-1.26.59-2.62.94-3.88,1.57-1.3.65-2.32,1.45-3.66,2.03-1.6.7-2.91,1.93-4.33,2.91-1.25.86-2.57,1.53-3.65,2.62-1.01,1.02-2.28,1.47-3.43,2.37-1.21.96-2.47,1.58-3.81,2.33-2.73,1.54-6.42,4.17-9.71,2.67.94-1.2,2.87-2.36,3.01-4.02.19-2.16-1.69-1.37-2.77-.68-1.65,1.04-2.56,2.31-3.81,3.7-1.47,1.63-3.32.53-5.11.07,1.23-1.1,2.44-2.22,3.67-3.33,1.03-.93,2.61-1.94,3.24-3.24.45-.92.43-2.19-.66-2.67-1.21-.54-2.59.6-3.49,1.27-2.39,1.79-3.96,4.06-5.53,6.55-.83,1.32-1.22,1.22-2.75.96-1.63-.28-3.25-.58-4.89-.77,2.17-2.23,4.6-4.65,6.31-7.26.56-.85,1.28-3.08-.41-3.28-.7-.08-2.09,1.34-2.62,1.73-2.35,1.68-4.61,3.81-6.17,6.26-.51.81-.68,1.71-1.67,1.78-1.3.09-3.72-1.16-4.98-1.54,2.4-3.03,4.78-6.08,7.59-8.76,2.58-2.46,5.15-4.24,8.16-6.12,3.23-2.02,6.24-4.34,9.2-6.73,2.84-2.28,5.8-4.44,8.42-6.99,5.22-5.09,9.87-10.95,13.72-17.14.9-1.45,1.75-2.94,2.48-4.48.69-1.45,1.01-3.18,1.94-4.5.32-.46.77-.79,1.06-1.27.27-.45.18-.99.59-1.38.95-.91,2.68-.36,3.57.28,1.43,1.03,2.59,2.28,4.16,3.15,1.58.87,3.29,1.5,5.04,1.93,4.09,1,8.15,1.81,12.32,2.42-.43,1.59.62,1.84.97,3.28.42,1.74-.12,3.93-.17,5.7Zm-39.41-26.58c-.93-1.38-1.76-2.83-2.67-4.21-.56-.85-1.24-1.76-.77-2.79.8-1.75,3.62-2.06,5.15-1.3,3.48,1.73.25,6.68-1.71,8.3Zm-9.21-31.58c-.32-2.7.71-4.61,3.15-6.03,1.74-1.01,3.14.37,2.9,2.21-.36,2.8-3.35,5.92-5.63,7.38-.15-1.18-.28-2.37-.42-3.56Zm-.37-7.72c.72-.57,2.65.16,3.48.21-1.15,1-2.29,2.01-3.44,3.01-.08-.69-.7-2.69-.04-3.22Zm3.87-26.07c5.8-.75-.88,5.48-2.56,6.45.27-1.33.95-6.24,2.56-6.45Zm15.44-10.91c-.78,3.19-6.83,6.68-6.89,1.45-.02-1.95,1.07-1.79,2.67-1.98.91-.11,4.67-1.29,4.23.53Zm-20.91,4.95c-.68,1.79-1.22,3.62-1.89,5.41-.3.79-.64,1.34-1.19,1.96-.46.53-1.01.66-.99,1.49.58-.11,1.03-.46,1.49-.79-.11,1.64-.69,3.41-.97,5.05-.34,1.97-.62,3.93-.72,5.92-.23,4.33-.23,8.65-.13,12.99.05,2.21.07,4.42.19,6.63.06,1.1.13,2.2.26,3.29.06.44.37,1.38.18,1.79-.77,1.62-4.21-2.83-5.7-2.18.21-1.23-.28-.96-1.11-1.57-.4-.29-.66-.79-1.08-1.06-.13-.14-.27-.26-.42-.36-.17-.24-.35-.21-.55.07-1.68-1.01-2.11-3.15-3.01-4.59-.46-.74-.91-.86-.99-1.88-.07-.89.07-1.8.03-2.7-.04-1.01-.1-2.13-.38-3.1-.33-1.14-.78-1.04-1.66-1.65.27-.12.45-.32.54-.6-.28.05-1.14.4-1.35.15-.42-.49.57-.56.83-.76-1.1-.49-.87-.89-.47-1.79.11-.25.22-.64.32-.85.21-.47.33-.17.4-.76.07-.56-.43-1.65-.57-2.24-.24-.99-.38-1.85-.16-2.89.18-.84.65-1.6.69-2.46,0-.24-.36-.32-.36-.56,0-.34.31-.49.39-.81.21-.81.12-1.66.48-2.43.33-.69.98-1.58,1.45-2.18.32-.42,1.11-.89,1.2-1.43.06-.36-.51-.32-.48-.6.03-.37.35-.49.43-.77.24-.76.29-1.49.9-2.07.77-.73,1.1-.43,1.13-1.63.02-.59-.45-.68-.2-1.36.14-.37.54-.59.8-.85.77-.77,1.28-1.46,1.83-2.42.48-.84,1.25-1.34,1.75-2.07.64-.95-.32-1.42.99-1.69-.19-.59-.38-1.07.11-1.57.31-.32,1.09-.12,1.36-.49.31-.42-.15-1.41.32-1.68.38-.22.96.46,1.56.12.46-.26,1.15-1.67,1-2.19,1.19.67.89.21,1.46-.65.13-.19.51-.23.62-.43.22-.39.17-.78.48-1.1.53-.52,1.39-.39,1.96-.76.48-.31.45-.64.83-.94.33-.25.86-.3,1.18-.56.62-.51.63-1.04,1.4-1.48.92-.52,1.73-.96,2.57-1.64.55-.45,1.06-1.24,1.7-1.53.88-.41,1.57-.44,2.43-1.02.62-.42,1.21-1.11,1.83-1.47.46-.27.79-.21,1.37-.37,1.05-.3,1.3-1.29,2.16-1.69.59-.28,1.44-.02,2.09-.17,2.01-.45,3.99-1.42,6-1.96,2.46-.66,4.93-1.23,7.41-1.81-2.28,3.09-5.17,5.88-8.11,8.33-.96.81-6.25,4.48-3.4,6.04,1.14.63,3.63-1.4,4.55-1.9,1.86-1,3.79-1.8,5.73-2.61,3.15-1.31,7.25-3.64,10.75-3.45-2.13,2.62-4.79,4.72-7.23,7.03-2.24,2.13-5.61,4.12-4.56,7.6-3.15-.8-5.97-1.75-9.24-1.54-1.46.09-2.93-.08-4.39.12-1.59.22-3.08.76-4.6,1.22-1.21.37-2.54.4-3.65,1.01-.54.3-1.2.72-1.68,1.09-.64.49-.79.82-1.29,1.46-1.8,2.31-3.54,4.47-4.61,7.28Zm-9.84,43.66c-.1-.4-.19-.76-.3-1.22q1,.62.3,1.22Zm-7.57-12.71c-.12.17-.64.22-.79.08-.19-.18.31-.9.38-1.05.2.15.64.64.41.97Zm-2.14-4.63c.13-.49.27-.97.4-1.46.16.45.9.95.91,1.38.01.29-1.17.14-1.31.08Zm.43.67c1.15.76,1.27,1.65,1.3,2.96-1.37-.46-1.18-1.79-1.3-2.96Zm19.98-51.59c-.12.31-.61,1.29-.97.61-.12-.22.73-.52.97-.61Zm-.33-1.07c.28-.26.86.06,1.18-.14.23-.15.15-.29.26-.38.02-.02.33-.64.45-.78.22-.25.7-.4.97-.63.75-.62,1.18-1.45,1.65-2.28.56-1,.74-1.11,1.66-1.57.63-.31,1.11-.7,1.63-1.24.59-.62.55-1.06,1.03-1.73.24-.33.58-.37.86-.64.33-.32.5-.77.81-1.09.13-.14.56-.14.64-.26.1-.15.18-.76.28-.87.18.25.37.5.55.75.73-1.28,1.26-2.34,2.47-3.19,1.27-.89,2.38-2.2,3.69-3,.3-.18.9-.26,1.13-.52.38-.45.05-.85.33-1.23.32-.43.93-.08,1.33-.27.51-.24.66-.92,1.31-.85-2.16,2.56-2.13,6.53-2.24,9.72-.05,1.38.82,2.07-.46,3.08-1.09.86-2.62.6-3.9,1.17-1.61.71-3.34,1.09-4.98,1.71-1.7.64-3.07,1.76-4.71,2.5-1.44.65-2.43,1.58-3.75,2.39-.49.3-1.25.73-1.84.38-.37-.22-.82-.59-.34-1.03Zm24.36-21.43c.09-.36,1.93-1.32,2.39-1.63.68-.47,1.69-1.61,2.44-1.16.26-1.05,1.29-2.23,2.19-2.45,1.01-.25,2.73-1.11,3.72-1.87.29-.22.38-.54.72-.75.59-.36,1.18-.16,1.75-.65.09-.07.88-1.38.91-1.37.04.14.08.28.11.42.6-.33,1.13-.6,1.51-1.02.08-.1-.46-.35-.29-.54.21-.23.69.03.9-.19-.67,3.31-.17,7.58,3.19,9.26-3.99.43-7.89-.77-11.93-.03-1.93.35-3.9.93-5.66,1.82-1.08.55-2.46,2.5-3.53,1.55.43-.57,1.08-.92,1.58-1.4Zm19.37-9.53c1.49-1.83,3.76-2.55,6.04-1.9,2.67.77,1.54,2.64,1.14,4.71-.77-1.13-2.44-2.25-3.86-2.29-2.01-.05-1.25,1.63-.04,2.24,1.1.55,2.99.7,3.77,1.7.77.97.47,2.55.6,3.69-.6-.09-1.19-.18-1.79-.27.5-2.67-1.7-2.79-3.75-3.55-2.07-.76-3.8-2.26-2.1-4.34Zm6.89-6.56v2.47c-.83-.47-1.66-.95-2.49-1.42.83-.35,1.66-.7,2.49-1.05Zm6.47,19.76c2.77.75,5.52,1.55,8.19,2.59.97.38,2.03.51,2.97.94.9.41,1.04.36.72,1.16-.9,2.22-3.03,1.84-4.9,1.5-2.92-.53-5.78-1.27-8.67-1.96-2.82-.68-5.7-1.12-8.48-1.97-2.85-.87-5.63-1.7-8.56-2.27-.86-.17-7.63-.79-7.57-1.5,4.26-.55,8.65,0,12.94.05,4.45.06,9.05.31,13.37,1.48Zm-3.76-8.59c.05-1.53.07-3.06.26-4.58,1.27,1.57,2.41,2.04,4.01.57,1.53-1.41,1.87-2.14,3.81-.82,1.68,1.15,3.27,1.09,5.06.09,1.09-.61,2.84-3.12,3.99-2.6.55.25.95,1.24,1.5,1.6.69.46,1.75.77,2.56.95,1.9.42,3.04-.81,4.23-2.12,1.73-1.9,1.68-.8,3.29.52,1.79,1.47,3.29.75,4.91-.5.99,2.9,1.36,6.07,1.64,9.11.09,1.03.45,2.49-.47,3.21-.65.51-2.03.53-2.81.81-2.79,1.01-5.48,2.45-7.81,4.28-.91.72-1.7,1.59-2.95,1.43-1.19-.16-2.34-1.15-3.29-1.81-1.04-.71-2.08-1.52-3.29-1.92-.71-.23-1.84-.15-2.46-.57-1.15-.79.2-2.87-.08-4.27-.22-1.06-.83-3.27-2.28-2.65-2.17.92-.91,4.53.29,5.65-2.44-.43-5.14-1.07-7.49-1.87-1.82-.62-2.68-2.68-2.61-4.54Zm40.89,7.44c5-1.41,9.69-2.36,14.9-2.61,2.31-.11,4.54-.04,6.82-.02,1.31.01,2.31-1.05,1.26-2.27-1.45-1.69-5.88-1.05-7.84-1.12-5.26-.2-10.08.4-15.06,2.13.53-.97,1.79-1.1,2.66-1.6,1.06-.62,1.79-1.63,2.24-2.76,1.18-2.93,0-5.69-1.24-8.37,2.43.65,4.94,2.09,7.38,2.45.51.08.84.03,1.29.21.28.11.37.51.71.6.17.04.57-.33.76-.28.74.21.15.27.62.57.37.24.34.55,1.03.44.3-.05.63-.52.79-.53.2-.02.16-.26.47-.19.57.13.52.86.71,1.22.2.38-.08.89.53,1.1.46.16.57-.33.96-.29.24.02.73.36.93.57.67.67,1.59,1.41,2.5,1.84-.09-.09.43-.3.3-.36-.08-.03.46.1.45.09.52.12.8.92,1.06,1.21.48.54,1.24,1.1,1.92,1.34,1.18.41,1.14-.08,1.57,1.32.84-1.32,1.16.89,2.19,1.13.54.13.47-.1.96.18.34.19.56.78.81,1.07.11-.41.22-.82.32-1.23.75,1.42,2.36,3.66,4.12,3.26,0,.39-.16.85.14,1.18.21.23.55-.03.71.1.14.12.48.58.59.66.21.15.6.26.79.41.16.13.25.77.43.99.34.43.94.52,1.22,1.03.06-.51.13-1.02.19-1.53.56.43.6.76.74,1.39.19.9-.06.69.55,1.07.61.37.92.33,1.48.98.55.63.55,1.02,1.34.36.15.49.19,1.12.59,1.49.29.28,1.52.29,1.63.96-2.3-1.94-.78,1.01,0,0,.17,1.07.95,1.42,1.84,2.18.83.71.97.66,1.26,1.86,0-.03.42.24.45.29-.81.12.45,1.03.66,1.19.16.12.36-.17.62.03.29.23.54.74.78,1.04.65.84,1.13,1.55,1.82,2.23.74.73,1.1,1.66,1.81,2.52.79.95,1.22,2.05,1.87,3.08.63.98,1.46,1.77,2.19,2.67,1.16,1.43,1.55,4.59,3.71,4.67-.13.13.05,1.11.07,1.29.1.89.03,1.74.56,2.55.12-.92.6-.56,1.01-.08.69.8.09.6.12,1.41.04.98.16.22.53,1.08.29.67.45,1.11.61,1.86-1.22.1-1.78-.9-2.23-1.87-.19-.4-.25-1.07-.59-1.38-.36-.34-.84-.36-1.21-.74-.7-.72-1-1.84-1.83-2.55-.93-.79-1.14-1.17-1.91-2.11-.85-1.05-2.03-1.78-2.92-2.8-.89-1.02-.82-.46-1.95-.83-1.2-.39-3.13-4.16-4.63-2.71.06-.95-1.36-1.84-2.08-2.18-.31-.15-.67-.01-.98-.24-.34-.24-.36-.71-.7-1,0,0-.52.13-.62.07-.21-.11-.22-.49-.41-.62-.53-.35-1.15-.72-1.71-1.02-1.35-.73-2.55-1.62-3.86-2.5-1.12-.75-2.47-2.11-3.77-2.5-1.13-.35-1.84-.17-2.76-.86-.5-.38-.36-.5-1.17-.74-.77-.22-1.2-.11-1.61-.93-.71-1.43-.26-4.23-.4-5.84-.15-1.71-.32-3.45-.76-5.11-.52-1.96-1.22-2.98-3.32-2.52-4.16.92-8.27,1.79-12.44,2.59-8.32,1.6-16.51,4.22-24.65,6.54-.62.18-4.08.97-3.37-.82.33-.83,2.52-1.13,3.25-1.39,4.02-1.43,8.07-2.88,12.18-4.04Zm-1.77-3.65c-.61.23-1.22.46-1.82.7v-1.69c.61.33,1.22.66,1.82,1Zm-2.16-8.95c.53.43,1.6-.61,2.05-.82.77-.36,1.74-.67,2.6-.6,1.58.14,2.74,1.7,2.45,3.28-.49,2.67-4.29,3.94-6.39,4.98-.07-.95-.37-2.09.29-2.91.58-.71,1.69-.66,2.22-1.42,1.34-1.9-2.29-2.08-3.1-.56-.32-.97-.64-1.93-.96-2.9.77-.13.43.61.83.94Zm3.74-5.23c-.76.49-1.51.98-2.26,1.47-.37-1.69.9-1.91,2.26-1.47Zm68.78,58.89c-.99.47-1.24-.66-1.95-.7q.84-.52,1.95.7Zm4.02,24.64c.12,1.62.03,3.26.24,4.88.17,1.23.66,2.37.71,3.62.12,2.72-.8,5.49-2.65,7.49-1.75,1.89-4.26,3.51-6.63,4.3-1.07.36-2.18,1.15-3.21,1.44-1.15.32-2.23-.38-3.18.88-.63-5.43-.17-11.1-.22-16.56-.05-5.47,0-10.95-.91-16.36-.82-4.82-2.45-10.24-5.44-14.19-1.22-1.6-2.71-2.91-4.29-4.14-.82-.64-1.64-1.32-2.55-1.82-1.4-.77-2.6-.67-4.12-.89-2.18-.32-4.21-.58-6.41.03-2.04.57-4.29,1.23-6.12,2.22-1.82.99-3.94,1.4-5.83,2.29-1.28.6-3.96,2.63-5.38,2.26-1.38-.35-3.42-2.7-4.31-3.75-1.13-1.34-2.06-2.9-3.06-4.35-.35-.51-1.07-1.29-1.16-1.94-.16-1.13.29-.76,1.37-.64,2.77.33,5.38.84,8.04,1.72,1.32.44,3.91,2.2,5.23,1.14,2.02-1.61-1.05-4.38-2.17-5.31-1.92-1.59-4.14-2.76-6.19-4.17-2.17-1.5-5.04-3.09-6.44-5.39,4.08,1.21,8.15,2.59,12.11,4.14,1.81.71,3.6,1.46,5.3,2.41.96.53,2.89,1.97,4.04,1.28,2.5-1.5-3.24-5.84-4.07-6.73-1.29-1.38-2.55-2.75-3.97-4-.95-.84-2.46-1.44-2.9-2.68,1.59.57,2.87,1.7,4.35,2.47.78.4,1.49.63,2.34.75.91.13,1.02.28,1.74.64.56.28,1.14.66,1.77.86.45.14,1.23.16,1.63.42.2.29.41.57.62.85.24.07.48.15.71.24.35.31.55.74.89,1.06,2.46,2.33,5.75,4,8.5,5.95,2.61,1.85,5.37,3.52,7.88,5.53,2.88,2.32,5.87,4.81,8.32,7.59,1.38,1.57,2.52,3.35,3.69,5.09.84,1.26,2.07,2.3,2.8,3.6,1.59,2.83,2.91,5.88,4.61,8.67,1.74,2.84,4.01,5.65,4.27,9.1Zm-23.43,16.41c.47-1.96,3.15-4.25,4.87-5.12-.86,2.14-3.16,3.6-4.87,5.12Zm4.42,6.85c-1.46,3.03-7.88,3.38-7.01-1.11.43-2.2,2.24-3.55,3.79-4.99.72-.67,2.48-3.05,3.59-2.66-.05,1.71-.15,3.43-.15,5.14,0,1.14.29,2.55-.23,3.62Zm-1.86-34.98c.59,1.33,1.18,2.44.08,3.63-.5.54-2.11,1.72-2.84,1.45-2.35-.84,2.13-4.49,2.76-5.09Zm-14.2-11.86c.57-.03,1.11.05,1.67.02.56-.03.62-.13,1.13-.06.05.08.11.16.16.24.07.53.35.59.84.17.68.15,1.12.25,1.77.62-1.75,1.26-3.88,2.73-6.02,3.15-3.39.67-2.45-3.98.45-4.14Zm-51.93,28.39c-.35.71-1.36-1.06-1.61-1.39.47,0,1.97.68,1.61,1.39Zm27.22-18.63c2.63-1.54,5.76-2.89,8.58-4.03.5,2.4-1.93,5.49-3.42,7.14-1.21,1.33-2.66,2.7-4.3,3.47-1.77.83-3.7.46-3.62-1.85.03-.85.22-2.21.57-2.98.44-1,1.28-1.2,2.18-1.73Zm-35.57-43.63c.39-.02,4.65-.57,4.62-.04-.07,1.59-4.2.34-4.62.04Zm-30.09,30.77c2.25-2.78,5.88-5.78,5.93-9.66.08-5.71-6.25-2.86-9.43-2.62,1.68-1.66,10.14-8.6,5.14-11.07-1.44-.71-3.48-.02-4.92.36-2.56.66-4.94,1.8-7.45,2.6,1.8-1.92,4.9-4.09,4.8-6.99-.12-3.53-3.02-2.68-5.52-2.16-.96.2-5.26,1.91-6.06.75-.3-.43.18-.97.28-1.35.18-.67.12-.9.13-1.59.01-1.38.93-3.16.18-4.44-.17.29-.32.6-.44.91-.25-.75-.08-1.54-.33-2.29,6.25,1.6,12.6,2.48,18.89,3.84,3.18.69,6.18,1.88,9.4,2.42,3.25.54,6.45,1.37,9.71,1.88,2.97.47,5.82,1.25,8.77,1.85,2.87.59,5.81-.7,8.62-1.35,6.28-1.45,12.55-2.94,18.83-4.35,7.25-1.63,14.8-3.02,21.74-5.74.13,3.62.42,7.23.87,10.83-3.06-1.45-7.61-3.34-10.71-.75-1.24,1.04-1.62,2.83-1.13,4.36.53,1.66,2.17,2.43,3.25,3.68-3.28-.84-11.75-6.78-13.25-.78-1.06,4.24,4.13,6.98,6.67,9.37-2.52-.49-5.9-2.51-7.38.73-1.28,2.81.26,5.86,1.84,8.17.85,1.25,1.82,2.43,2.73,3.65.48.64.95,1.29,1.46,1.92.51.63,1.46,1.28,1.82,1.95.71,1.36-.73,1.44-1.85,1.93-1.4.61-2.6,1.64-3.88,2.46-2.93,1.88-5.5,3.62-8.96,4.22-3.57.62-7.01,1.26-10.53,2.12-3.51.86-6.38,1.68-9.97.57-1.64-.51-2.97-.95-4.7-.86-1.82.1-2.89,0-4.39-1.13-6.45-4.87-13.45-8.86-20.11-13.45Zm-11.63-4.89c2.49-1.25,5-2.51,7.58-3.59,2.13-.89,5.37-1.93,7.7-1.54-.66,1.69-1.86,3.08-3.15,4.33-1.14,1.1-2.56,2.77-3.94,3.53-1.25.7-2.71-.41-3.94-.87-1.36-.51-3.22-.75-4.25-1.86Zm.63,6.32c1.24-.52,3.91,1.22,5.04,1.67,2.22.89,4.45,1.81,6.41,3.21-2.39,2.77-5.1,5.29-8.31,7.07-2.12,1.17-5.68,2.51-7.68.39-2.51-2.67.51-8.1,2.28-10.39.06.39.12.78.18,1.17.57-.91,1-2.68,2.08-3.13Zm45.6,23.67c-1.55.33-2.08.03-3.1-1.16-.69-.8-1.37-1.64-2.15-2.36-.8-.74-2.76-2.52-.26-1.49,2.28.93,4.24,1.4,6.75,1.03,2.87-.42,5.55-1.63,8.38-2.25-1.55,1.36-3.09,2.73-4.65,4.09-1.64,1.43-2.89,1.7-4.97,2.14Zm.35,10.94c-3.4,2.56-10.23,2.28-7.93-3.35.35-.86.84-1.66,1.4-2.39.19-.24.52-.75.79-.91.75-.46.54-.51,1.26.25.62.66,5.49,6.02,4.47,6.4Zm-1.01-9.79c.31-.1,1.62-.86,1.92-.44.3.43-2.27,1.9-1.92.44Zm24.72,39.04c-.76,1.83-6.87,4.48-5.74.79.51-1.63.98-2.87,2.88-2.99,1.1-.07,3.53.59,2.85,2.2Zm10.96-24.8c1.01-1.47,4.33-3.45,5.75-1.26.68,1.05-.98,1.59-1.98,1.32-.54-.15-.98-.47-1.56-.49-.75-.03-1.49.56-2.2.43Zm2.67,1.46c-.68.69-4.81,4.17-5.48,3.63,1.35-1.93,2.89-4.08,5.48-3.63Zm-6.74,35.19c-1.43.08-.72-2.08-.58-2.95.35.6,2.17,2.86.58,2.95Zm3.64-3.88c-.46-.83-1.71-2.06-1.43-3.12.22-.81,2.17-1.9,2.98-1.44,1.08.62-.49,4.69-1.55,4.56Zm34-8.66c-.61,2.12-1.25,1.57-3.17,1.98-1.93.41-3.26,2.05-4.96,2.93.59-1.25.96-2.77,1.94-3.78.23-.23,1.63-.7.83-1.24-.7-.47-1.7,1.06-2,1.48-1.47,2.06-2.5,4.58-3.35,6.95-.42,1.17-.75,2.35-.95,3.57-.18,1.09.01,2.23-.17,3.29-.29,1.71-2.61,1.72-4,2.16-1.26.4-2.52.83-3.83,1.05-1.14.19-2.31-.15-3.42.07-1.19.24-1.73.95-3.08.79-1.11-.13-2.14-.64-3.26-.69-1.05-.05-2.09.32-3.14.02-1.05-.3-1-.41-.76-1.45.15.28.3.56.45.84.42-.33.71-1.33.97-1.8.4-.73.72-.98.58-1.89-.22-1.34-1.43-2.3-1.7-3.57-.29-1.33.7-2.42,1.28-3.53.79-1.52.78-2.65.12-4.23.5.13,1,.26,1.51.4-.69-1.5-3.02-.89-4.19-.45-.59.22-1.52,1.1-2.15,1.08-.87-.03-1.32-1.18-1.7-1.81-1.08-1.83-2.32-3.63-3.6-5.32-.35-.47-.81-.76-.69-1.3.1-.45,1.11-1.09,1.44-1.37,1.23-1.04,2.79-1.62,3.94-2.71,1.74-1.65,3.75-2.84,5.53-4.46,1.86-1.69,3.77-3.24,5.7-4.84,1.96-1.62,3.66-3.52,5.6-5.15.5.91,1.48,4.19,2.6,4.44,1.3.29,1.26-1.25,1.2-2.18-.09-1.32-.83-2.61-.91-3.87-.09-1.35,1.21-1.95,2.19-2.74,1.51-1.21,4.86-3.96,3.06-6.22-1.55-1.95-6.59,1.79-7.98,2.91-1.18.95-2.09,1.82-3.42,2.57-.93.53-2.5,2.56-3.61,2.38-1.32-.22-1.83-1.67-3.45-1.62-1.58.05-2.91,1.18-3.89,2.32-2.21,2.58-2.97,6.03-4.98,8.72-.99,1.33-2.28,2.42-3.36,3.67-1.18,1.38-1.43,2.96-2.6,4.31-3.34-4.45-6.97-8.67-10.49-12.97-1.76-2.15-3.48-4.32-5.2-6.5-.64-.82-1.37-1.58-1.96-2.44-.81-1.17-.66-2.12-.98-3.43-.14-.58-.8-1.28-.62-1.83.24-.75,1.9-1.33,2.5-1.64,2.45-1.25,4.68-2.8,6.96-4.33,4.23-2.82,8.52-5.47,13.02-7.87-.08,1.04-.75,2.11-.3,3.16.21-.6.54-3.27,1.34-3.38-.15.02-.03,3.42.1,3.91.37,1.45,1.44,2.44,2.97,2.43,2.91-.02,5.52-3.19,7.14-5.3,1.09-1.42,2.15-3.08,2.53-4.86.35-1.6-.03-2.71,1.63-3.53,3.41-1.67,6.84-3.02,10.49-3.91-.16,1.57-.62,3.51.81,4.64,1.58,1.25,3.64.14,5.12-.69,1.47-.82,3.73-3.07,5.46-2.41,1.7.64,2.88,2.77,3.83,4.19.84,1.25,1.75,2.15.78,3.54-1.09,1.56-1.8,3.08-2.67,4.77-.33.65-.65,1.08-.42,1.74.08.22.95,1.5,1.19,1.69,1.51,1.18,3.55-1.06,4.63-1.91.38,3.66.47,7.31.62,10.99.11,2.69,1.15,5.34-1.05,7.31-2.2,1.97-4.05,3.99-5.39,6.65-.72,1.42-1.36,2.88-2.14,4.28-.52.93-1.61,2.3-.94,3.39.71-.67.92-1.69,1.51-2.45.35,1.57.71,3.32,2.37,3.98,1.91.77,3.81-.56,5.5-1.3-.61,4.2-1.79,8.28-2.97,12.35Zm-1.95,4.83c-1.31,2.81-2.5,6.19-4.92,8.26-.53.45-2.79,2.23-3.65,1.93-.73-.25-.33-1.73-.2-2.36.65-3.21,1.76-5.23,4.36-7.28,1.07-.85,2.46-1.93,3.84-2.14,1.49-.23,1.06.52.56,1.6Zm36.97,66.61c-3.4-4.63-8.2-8.23-12.74-11.7-2.06-1.57-4.32-2.76-6.4-4.33-2.35-1.78-4.73-3.5-7.36-4.84-4.99-2.55-10.43-4.32-15.14-7.33-2.3-1.47-4.81-2.89-6.96-4.53-.95-.72-1.79-1.65-2.64-2.48-.8-.77-2.5-1.89-2.82-3.02,1.32-.22,2.08-1.5,3.26-1.64.39-.04,2.83.6,2.5-.58.89-.02.99-.04,1.73-.23.31-.08.67.04.98-.07.48-.17.8-.65,1.28-.84.34-.13,1.61.01,1.8-.15.52-.45-.03-.41-.35-.97,1.02-.03,1.72.49,2.74-.06.31-.17.57-.55.88-.75.54-.35.73.19,1.09-.54.34,1.01.33.73,1.16.43.82-.3,1.42-.51,2.35-.58,2.24-.18,4.48.09,6.71-.07.82-.06,1.51-.24,2.32-.14.71.09.5.59,1.09-.08.14-.15-.31-.58-.09-.8.09-.1.4-.03.52-.08,1.04-.46,1.05.18,1.23,1.01.61-.14,1.23-.27,1.76-.63-.27-.24-.72-.51-.46-.94.88.33,1.46.18,1.02,1.15.89.29,1.05-.09,1.85-.17.47-.05,1.13.24,1.52-.13.43-.41-.25-.86.54-1.21.16.08.28.21.36.37.43.13.35.3-.23.5,1.55.8,1.18-.09,1.83-1.04.15-.22.82-.9,1.13-.57.46.5-.48.66-.28,1.15.35.86,1.58-.24,1.96-.68.29-.33.4-.96.71-1.2.43-.34,1.04.19,1.58.09,2.44-.43,4.75-3.72,2.91-5.93-.5-.59-.91-.47-1.5-.85-.58-.37-.91-1.01-1.38-1.54-1.07-1.2-2.38-2.11-3.87-2.68-3.46-1.34-7.2-2.32-10.84-3.03-1.69-.33-3.48-.84-5.2-.84-1.02,0-2.55.79-3.5.42-1.85-.74.87-4.51,1.31-5.73,1.31-3.58,2.31-7.4,2.96-11.16.13-.74.08-1.69.34-2.39.3-.81.37-.69,1.02-.76,1.18-.12,2.46.5,3.68.28,1.36-.24,2.82-.13,4.19-.55.63-.19,1.21-.4,1.63-.93.13-.17-.01-.31.07-.43.03-.04.49-.54.51-.57,0-.26.02-.52.07-.78.47.39.24,1.22,1.04,1.24.14-.88.14-1.06.72-1.56-.04.04.44-.37.37-.33.03-.16.09-.3.17-.44.27-.13.56-.2.86-.21.62-.64.37-.99.37-1.85.5.26,1.01.52,1.51.79.12-2.57,1.68-3.97,2.72-6.05.44-.89.89-1.58,1-2.65.06-.62-.1-1.16.16-1.74.23-.53.75-.81.96-1.39.43-1.13.11-2.57.13-3.75.03-1.63.2-3.25.25-4.88.1-3.19-.22-6.48-.69-9.63-.23-1.51-.61-2.97-.91-4.47-.25-1.23-.84-2.38-1.05-3.52-.09-.47.05-.9-.1-1.43-.19-.69-.5-1.37-.74-2.05-.55-1.58-1.09-3.16-1.7-4.72-1.19-3.02-2.59-5.95-3.91-8.91-1.27-2.85-2.33-5.79-3.98-8.45-1.63-2.62-3.38-5.2-5.17-7.71-1.87-2.61-4.23-4.86-6.04-7.49-3.4-4.95-8.14-9.03-13.1-12.4-10.24-6.95-21.3-13.89-33.58-16.27-1.85-.36-3.72-.61-5.61-.65-1.17-.03-3.11.54-4.22.14-1.24-.44-1.13-1.84-1.44-2.93-.4-1.41-1.3-2.33-2.32-3.32-1.08-1.05-2.05-2.27-3.4-2.98-1.36-.72-2.97-.99-4.47-1.21-1.35-.2-3.36-.01-4.59-.6-1.12-.54-.57-1.09.48-.63.08-.46.14-.76.44-1.12.15-.18.85-.43.87-.6.02-.2-.57-.76-.65-1.01-.18-.55-.08-1.3.14-1.81,1.06.94,1.36,1.36,2.54.46.5-.38.65-.55,1.23-.74.16-.05.51.11.65.02.52-.34.04-.26.29-.67-.06.1.38-.98.35-.75.05-.58.22-.4-.12-1.11-.68-1.38-2.41-1.44-1.53-3.02.35-.62.65-.56.75-1.46.05-.48-.01-1.04-.01-1.53,0-1.01.19-1.71-.76-2.23-.91-.49-1.74.05-2.11-1.18-.39-1.28,0-2.93-1.39-3.81-1.02-.64-2.48-.09-3.6-.41-1.12-.31-2.16-1.47-3.3-.58-.81.63-1.24,2.17-2.77,1.34-.69-.38-1.07-1.64-1.5-2.35-.69-1.13-1.25-1.54-2.31-.44-.66.68-2.04,2.33-2.13,3.28-.09,1.04.81,1.47-.32,2.09-1.13.61-1.76.16-2.68,1.4-.91,1.23-.21,1.91-1.26,3.09-1.32,1.47-2.02,2.11-2,4.09.01,1.36-1.19,2.54-.49,3.83.78,1.45,3.07,2.05,4.46,2.64-.46.86-1.1,1.41-.56,2.29.49.8,1.88.97,2.73.82.58-.1.6,0,1.05-.42.3-.27-.11-.6.5-.75.65-.16,1.7,1.12,2.12,1.44-.95,1.23-3.55,1.46-4.93,2.09-.84.38-1.61.94-2.46,1.28-.77.31-1.72.24-2.42.71-1.21.83-1.72,2.87-2.46,4.07-.84,1.36-1.66,1.99-3.27,2.27-2.01.35-3.64.49-5.52,1.37-2.29,1.07-4.56,2.21-6.81,3.36-3.64,1.87-7.01,3.78-10.39,6.04-3.53,2.36-6.97,4.83-10.37,7.29-3.37,2.44-6.2,5.44-9.13,8.4-2.37,2.39-4.44,4.96-6.8,7.35-2.78,2.82-4.83,6.37-7.41,9.36-1.41,1.63-2.76,3.24-3.65,5.17-.72,1.56-1.97,3.09-2.8,4.73-1.06,2.09-2.07,4.15-3.27,6.18-.49.83-1.07,1.54-1.59,2.34-.66,1.02-.62,2-.8,3.17-.19-.29-.37-.57-.56-.86-.34.74-.75,1.47-1.04,2.22-.19.48-.16,1.17-.34,1.59-.24.53-.52.46-.82.9-.31.47-.41,1.11-.75,1.61-1.43,2.19-1.98,4.97-2.71,7.46-.98,3.35-.83,7.2-.78,10.66.06,3.65.26,7.3.8,10.91.5,3.27,1.56,6.41,3.22,9.27,1.45,2.5,3.44,3.95,6,5.23,1.17.59,2.26.41,3.5.5,1.35.1,2.27.47,3.7.15.68-.15,1.01-.65,1.55-.82.34-.1.52.07.84.03.46-.06,1.42-.28,1.93-.23,1.56.17,1.3,2.54,1.45,3.74.24,1.86.41,3.74.73,5.59.67,3.89,2.12,7.52,2.97,11.34-3.97.48-7.37,1.22-11.08,2.73-3.73,1.51-7.5,2.02-11.42,2.77-3.67.7-7.2,2.01-10.14,4.39-1.38,1.11-2.81,2.41-1.8,4.25.65,1.17,1.81,1.47,2.82,2.15.2-.26-.38-.8-.49-.95.85.17.82.57,1.44.91.54.3.98.29,1.57.5,1.44.52,2.15,1.81,3.58,2.18.45.11,1.04.39,1.49.47.55.09.96-.15,1.52-.05.3.2.63.34.98.43.23-.11.46-.22.68-.34.8.08,1.3.59,1.95,1,.04-.52-.02-1.07.48-1.41.19.51-.12.83.41,1.18.67.44,1.54-.11,2.14-.39.17,1.69,4.08,1.59,5.32,1.57,1.72-.03,3.43-.71,5.16-.34.88.2,1.83.4,2.71.65,1.06.3,2.34.57,3.38.96.41.15.92.64,1.36.61.35-.03.45-.54.85-.53.46.02.62.53,1.02.69.6.23,1.15-.21,1.72.01.2.08.48.42.74.54.4.17,1.19.17,1.63.25.63.12,1.19.04,1.73.08.43.03.42.32.63.34.24.02.65-.8.97-.92.47-.18,1.31.24,1.79.32-3.44,4.67-7.59,8.8-12.09,12.41-4.85,3.9-9.82,7.79-15.02,11.21-4.72,3.11-9.29,5.79-12.96,10.18-3.09,3.7-8,7.65-7.24,13.01.76,5.35,6.56,7.53,11.21,8.55,5.85,1.29,11.87.77,17.74,1.49,2.5.31,5.28.14,7.8-.12,2.97-.31,5.52-2.25,8.08-3.66,4.6-2.53,8.53-5.91,13.06-8.52,5.67-3.26,11.28-6.72,17.5-8.91,2.89-1.02,5.87-2.18,8.2-4.27.35-.31.61-.78,1-1.04.67-.44.85,0,1.23-.13.3-.1.59-.42.84-.52.65-.24.94-.14,1.67-.14-.63-.36-1.2-1.3-.55-2.06,1.11-1.3,1.31.78,1.72,1.26.36-.46.22-.86.13-1.38.3.2.6.4.9.6-.21-1-.01-1.93.52-2.81.49-.81.61-.69.75-1.81,1.52,1.39,1.82-1.99,1.96-3.22.13-1.19,0-2.05.79-3.09.84-1.12,2.12-1.83,3.19-2.7,1.69-1.38,3.54-3.11,5.88-1.79,1.84,1.04,2.84,3.6,4.57,4.91,1.05.8,2.15.88,2.82,2.11.54,1,.72,2.19,1.23,3.22,1.24,2.48,3.01,5.33,5.04,7.23,1.89,1.77,4.31,1.76,6.52,2.86,2.19,1.09,4.46,2.27,6.78,3.06,2.53.86,5.26,1.23,7.72,2.27,1.27.54,2.4,1.35,3.68,1.86,1.38.55,2.83.95,4.23,1.45,5.53,2.01,10.95,4.48,16.76,5.6,2.58.49,4.97,1.84,7.56,2.12,1.11.12,2.02.28,3.11.56,1.71.44,1.35.67,1.98,2.1,1.04,2.35,3.57.96,5.52,1.02,3.12.09,6.2-.41,9.32-.44,5.45-.04,10.7-.66,15.98-2.45,5.3-1.8,11.33-6.14,6.92-12.13Z"/>
      <path class="cls-2" d="m150.95,47.13c.07.07.25.12,0,0h0Z"/>
      <path class="cls-2" d="m54.88,147.29c1.18-1.2,6.22-.96,6.61,1.19.42,2.4-4.08,6.03-5.73,7.04-2.12,1.31-4.71,1.55-4.33-1.73.28-2.48,1.77-4.79,3.46-6.5Zm4.16-2.48c.15.67-.98.44-1.29.28-.15-.3,1.14-.95,1.29-.28Zm-8.69,4.4c1.01.09,2.16-1.52,2.92-2.07.33.52-1.88,3.37-2.12,4.02-.61,1.63-.95,3.68-.12,5.3,2.42,4.74,8.61-2.03,10.16-4.39,1.08-1.65,1.83-3.7.3-5.32-.54-.58-1.45-.74-1.95-1.29-.67-.72-.14-1.65-1.48-1.5-.92.11-2.03.94-2.93,1.25-1.08.36-2.06.74-3,1.42-.21.15-3.02,2.47-1.78,2.59Z"/>
      <path class="cls-2" d="m121.4,150.81c-.63,3.26-3.85,6.6-7.24,6.73-3.38.13-4.47-3.41-3.87-6.24.51-2.41,2.59-6.59,5.55-6.13,2.33.36,6.11,2.85,5.57,5.64Zm-2.15-5.44c-2.14-1.66-5.1-2.43-7.58-1.11-.81.43-4.06,2.34-3.07,3.62,1.33-1.03,2.48-2.47,4.21-2.81-.29,1.34-1.95,2.55-2.54,3.86-.69,1.53-1.06,3.28-.95,4.96.2,2.99,2.2,5.31,5.3,4.9,2.83-.38,5.31-2.55,6.67-5,1.81-3.27.79-6.24-2.04-8.43Z"/>
      <path class="cls-2" d="m99.37,158.22c-1.52,2.26-3.85,4.39-6.54,5.08-3.48.9-2.5-1.98-1.46-4.04.92-1.83,2.5-4.97,4.9-4.95.82,0,2.33.4,3.05.84,1.41.86.86,1.89.05,3.07Zm-3.25-4.97c.55-.61,2.97-3.23,3.29-1.19.7-.81.15-1.48-.74-1.56-1.07-.1-2.25,1.09-3.02,1.69-1.6,1.23-2.82,2.48-3.88,4.2-1.17,1.89-4.14,6.17-1.54,8.05,2.81,2.03,6.9-1.72,8.66-3.65,1.13-1.24,2.62-3.05,2.19-4.87-.53-2.23-3.11-2.46-4.96-2.67Z"/>
      <path class="cls-2" d="m84.13,116.82c-1.57,1.8-4.77,4.42-7.4,4.11-2.4-.28-1.46-2.98-.61-4.29,1.28-1.96,2.99-3.81,5.46-3.91,1.07-.05,2.45-.03,3.28.78,1.13,1.11.11,2.36-.72,3.31Zm-.17-5c-1.84-.64-2.57-.88-4.36.13-1.44.81-2.71,1.97-3.7,3.27-1.48,1.96-2.97,6.36.83,6.91,4.16.6,14.06-7.95,7.23-10.31Z"/>
      <path class="cls-2" d="m89.63,123.05c-1.2,1.22-2.69,2.22-4.4,2.56.72-1.61,2.33-5.14,4.24-5.63.88-.23,1.88.07,1.81,1.07-.05.73-1.19,1.5-1.66,1.99Zm1.54-4.26c-.99-.5-.68-.84-1.83-.45-.91.31-2.05.84-2.81,1.45-.41.33-1.7,1.52-1.54,2.13.29,1.1,1.24-.58,1.5-.91.43.35-1.78,3.52-1.91,4.04-.49,1.94,1.03,2.14,2.52,1.51,2.01-.85,7.96-5.83,4.08-7.78Z"/>
      <path class="cls-2" d="m120.63,170.98c.15-1.29.36-2.65,1.54-3.37,1.06-.65,2.16-.56,2.32.78.15,1.24-1.07,3.44-2.05,4.12-1.37.94-1.63-.23-1.81-1.53Zm1.76,2.93c2.8-1.64,4.57-9.18-.6-7.07-2.94,1.2-1.86,8.51.6,7.07Z"/>
      <path class="cls-2" d="m98.43,142.65c.44-.91.95-1.21,1.84-1.61-.6.57-1.21,1.09-1.84,1.61Zm.65-2.24c-.64.64-2.09,1.61-1.89,2.71.19,1,.95.94,1.64.63,1.45-.65,2.26-3.51,3.78-3.78-1.68-1.07-2.08-1.02-3.53.44Z"/>
      <path class="cls-2" d="m99.3,83.58c.08,3.05.15,6.09.22,9.14.02,1.07-.23,2.6.09,3.62.14.45,1.42,2.41,1.88,2.54,1.59.44,1.02-3.55,1.03-4.53.04-3.32-.01-6.64-.02-9.96,0-1.71.47-16.05-1.74-15.98-.38.01-1.32,1.65-1.46,1.98-.45,1.03-.28,2.56-.27,3.66.03,3.17.19,6.35.28,9.53Z"/>
      <path class="cls-2" d="m112.71,92.47c.12.84.06,2.25,1.01,2.68.82.38,1.14-.07,1.45-.78.71-1.62.45-4.11.44-5.79-.03-3.33-.4-6.64-.66-9.96-.11-1.45.12-2.92-.06-4.44-.08-.67-.16-3.36-1.39-3.23-1.12.11-1.02,2.93-1.08,3.65-.51,6.04-.6,11.82.3,17.85Z"/>
      <path class="cls-2" d="m165.48,161.84c-.47,2.43-8.2,10.87-10.15,6.15-1.15-2.8,1.35-5.85,3.3-7.48,1.21-1,2.72-1.99,4.36-1.69,1.4.26,2.79,1.47,2.49,3.01Zm-3.99-4.35c-.55.13-5.11,3.34-5.15,3.3-.4-.4,2.48-4.7,2.78-5.07,2.44-3.1,4.06-.75,5.59,1.68-.32-1.45-1.22-3.56-2.71-4.18-1.89-.78-3.36,1.14-4.27,2.52-1.28,1.95-1.99,4.06-2.7,6.26-.34,1.05-.73,2-1.3,2.94-.57.93-1.56,1.96-1.42,3.14.81-.45,1.24-1.33,1.75-2.06.57.23.37,2.04.49,2.5.29,1.16,1.08,2.07,2.3,2.27,2.28.37,4.74-1.74,6.27-3.18,1.61-1.51,3.34-3.58,3.32-5.91-.01-2.43-2.4-4.81-4.94-4.21Z"/>
      <path class="cls-2" d="m167.67,118.5c-1.29,1.98-3.56,4.36-5.97,4.82-1.76.34-2.93-.97-2.22-2.74.6-1.49,2.64-2.44,3.97-3.09,1.06-.52,6-1.73,4.21,1.01Zm-.95-3.24c-2.65-.1-4.79,1.82-6.76,3.35.45-1.76,1.45-3.67,2.88-4.82,1.93-1.56,3.77-.59,5.8.19-.5-1.59-2.76-2.16-4.19-1.93-1.82.28-3.12,1.84-4.04,3.34-1.1,1.79-1.47,3.9-2.76,5.59-.59.77-4.25,3.65-3.42,4.83,1.37-1.45,2.73-2.9,4.1-4.36.35,1.72.74,3.67,2.93,3.5,1.75-.13,3.74-1.62,5.02-2.76,1.65-1.47,4.9-6.76.45-6.93Z"/>
      <path class="cls-2" d="m129.59,132.19c-1.12.52-3.59,1.22-4.22-.33-.87-2.16,1.93-5.94,3.27-7.38.82-.88,1.38-1.34,2.52-.77.91.46,2.26,1.75,2.61,2.75.75,2.14-2.42,4.92-4.18,5.73Zm2.58-10.36c.91.21,1.03,1.37-.12.92-.86-.33-1.06-1.19.12-.92Zm1.15,1.64c-.34-1.04.35-2.68-1.33-2.75-.95-.04-2.7.93-3.53,1.32-1.15.55-2.24,1.38-2.84,2.55-.56,1.09-.16,1.37.69.47.1.07-1.92,5.31-1.94,5.83-.08,2.4,1.61,3.98,3.99,3.55,2.19-.39,4.16-2.18,5.36-3.99.61-.91,1.11-1.96,1.15-3.08.07-1.72-1.07-2.41-1.56-3.9Z"/>
      <path class="cls-2" d="m146.93,118.69c-1.91-.88-4.05,2.12-3.13,3.9,1.21,2.33,7.11-2.07,3.13-3.9Zm-2.28,3.35c-.4-.71,2.31-1.75,2.73-1.77-.21.39-2.19,2.74-2.73,1.77Z"/>
      <path class="cls-2" d="m16.66,116.97c-.11-.76-1.8.34-1.79.83.28-.56,2.02.75,1.79-.83Z"/>
      <path class="cls-2" d="m109.43,59.7c2.16-.16-.59-11.07-2.16-10.11-1.71,1.05.18,10.25,2.16,10.11Z"/>
      <path class="cls-2" d="m113.46,54.6c2.02.29,1.7-4.36.61-5.2-2.01-1.54-3.07,4.84-.61,5.2Z"/>
    </g>
  </g>
</svg>