<svg width="216" height="250" viewBox="0 0 216 250" fill="none" xmlns="http://www.w3.org/2000/svg">
<g clip-path="url(#clip0_137_1913)">
<path fill-rule="evenodd" clip-rule="evenodd" d="M56.9683 56.2367C56.7123 60.4248 56.4563 64.6122 56.2007 68.8004C57.8465 68.3257 68.315 65.2405 67.6685 68.3686C67.2044 70.6122 64.2613 73.0393 62.7617 74.6013C61.3817 76.0395 59.9603 77.4403 58.5031 78.8C61.1815 77.7729 63.8824 76.8004 66.6025 75.8906C68.6609 75.202 70.7346 74.5302 72.8437 74.0141C73.6265 73.8223 75.7404 73.0404 76.4801 73.5736C78.4235 74.9747 67.8785 85.2935 66.4339 86.7481C68.4764 85.7965 70.5681 84.9322 72.6951 84.1906C74.231 83.6553 78.9758 81.6088 80.3347 83.3564C81.7894 85.226 78.1857 89.5191 77.186 90.8802C75.7542 92.8309 74.2023 94.7019 72.574 96.4913C79.3416 102.58 87.2946 107.999 95.7584 111.367C101.964 113.837 108.06 114.465 114.608 113.11C121.336 111.718 127.788 109.047 133.921 105.994C137.523 104.201 141.077 102.26 144.463 100.081C143.067 98.3798 141.712 96.6435 140.395 94.8806C138.516 92.3638 136.206 89.6139 135.134 86.6177C134.085 83.6854 138.02 84.2578 139.908 84.4172C142.641 84.6478 145.367 85.137 148.045 85.7225C146.151 84.403 144.292 83.031 142.47 81.6142C140.095 79.7678 136.927 77.6803 135.372 75.0241C134.005 72.6885 137.005 73.2783 138.393 73.5841C141.7 74.3141 144.918 75.5576 148.073 76.7706C150.383 77.6589 152.679 78.5894 154.953 79.5692C153.541 78.3402 152.177 77.0524 150.867 75.7174C149.104 73.9229 146.728 71.7312 145.938 69.2601C144.329 64.2273 155.152 68.0235 156.999 68.8004C156.658 63.587 156.317 58.3736 155.976 53.1603C141.646 56.9794 127.316 60.7993 112.985 64.6188C111.437 65.0317 109.499 65.9306 107.883 65.9785C106.421 66.0224 104.654 65.3626 103.227 65.0898L77.2952 60.127C70.5195 58.8301 63.7439 57.5336 56.9683 56.2367Z" fill="#906E2A"/>
<path fill-rule="evenodd" clip-rule="evenodd" d="M210.987 235.552C209.44 236.438 207.627 237.123 205.909 237.582C204.899 237.852 203.232 238.686 202.345 237.922C201.919 237.555 201.821 236.722 201.57 236.239C201.173 235.475 200.607 234.815 200.078 234.14C198.795 232.502 197.46 230.923 196.063 229.383C195.401 228.653 194.192 226.949 193.025 227.062C191.571 227.202 191.606 229.217 191.97 230.247C193.131 233.526 196.642 236.384 198.936 238.854C198.353 239.753 195.15 239.646 194.26 239.436C192.902 239.115 192.765 238.146 192.145 237.038C190.695 234.449 187.755 233 185.337 231.478C184.456 230.923 182.583 229.384 181.434 229.772C180.345 230.138 180.393 231.531 180.739 232.441C181.263 233.815 182.753 234.769 183.855 235.637C185.324 236.795 186.667 238.055 187.891 239.473C186.127 239.617 184.368 239.866 182.608 240.012C180.48 240.188 178.706 239.017 176.746 238.354C174.925 237.738 173.11 237.217 171.32 236.507C169.31 235.71 167.204 235.432 165.176 234.732C157.218 231.987 149.42 228.534 141.751 225.053C138.097 223.395 134.518 221.735 130.71 220.437C127.935 219.491 123.574 217.606 122.911 214.295C122.561 212.546 123.837 210.664 124.025 208.917C124.245 206.86 124.072 204.598 123.446 202.626C122.895 200.888 121.982 199.278 121.262 197.61C120.423 195.665 121.174 195.697 122.803 195.475C124.753 195.211 127.029 194.111 128.862 193.395C130.973 192.57 133.066 191.417 135 190.231C136.749 189.159 138.271 187.777 139.663 186.276C141.08 184.749 141.997 182.94 143.366 181.375C148.42 187.601 153.224 193.922 158.595 199.878C161.129 202.69 163.886 205.015 167.009 207.152C168.313 208.046 169.608 209.065 171.029 209.771C172.806 210.655 174.792 211.203 176.618 212.009C183.621 215.099 190.305 218.478 196.838 222.466C199.999 224.395 202.651 226.607 205.434 229.026C206.301 229.78 213.397 234.17 210.987 235.552ZM128.837 184.547C127.705 185.061 126.627 185.728 125.419 186.058C125.762 183.971 127.705 180.825 130.197 181.171C131.149 181.303 131.867 182.043 131.449 183.065C131.068 183.992 129.643 184.182 128.837 184.547ZM50.0642 127.968C48.7814 128.677 47.586 129.09 46.8336 127.567C47.3909 127.455 49.9221 127.117 50.0642 127.968ZM47.9282 123.662C46.9366 123.361 47.7296 123.044 48.0707 122.681C48.3365 122.398 49.2165 121.406 49.5244 121.242C50.8844 120.521 51.9355 123.206 52.586 124.077C51.0465 123.94 49.4268 124.118 47.9282 123.662ZM58.5292 132.959C56.6499 133.277 56.8584 130.923 56.9146 129.73C57.3109 130.214 59.9944 132.71 58.5292 132.959ZM64.7569 128.891C62.4657 129.278 60.952 125.313 61.3628 123.579C61.7239 122.051 63.4995 121.198 64.9132 120.973C66.283 120.755 68.1906 121.053 68.5974 122.635C68.9571 124.034 66.2838 128.633 64.7569 128.891ZM118.99 188.743C117.343 189.25 115.73 189.314 114.075 189.811C112.198 190.376 110.46 190.326 108.579 190.71C107.813 190.866 105.749 191.983 105.002 191.733C104.262 191.486 103.192 189.187 102.767 188.59C106.096 187.204 108.935 185.414 111.129 182.494C112.874 180.172 114.745 176.693 113.647 173.696C112.409 170.317 108.142 169.583 105.298 170.995C103.952 171.662 102.618 172.492 101.508 173.509C100.239 174.672 99.7402 175.941 98.9183 177.376C98.0872 178.826 97.5038 178.019 96.6731 176.788C95.9636 175.735 96.056 174.671 95.1691 173.633C94.7166 173.102 94.0157 172.591 93.7797 171.906C93.63 171.472 93.9454 170.703 93.6615 170.361C93.2623 169.881 92.7764 170.445 92.4418 170.017C92.1988 169.705 92.2782 168.995 92.0273 168.606C91.8094 168.384 91.5676 168.195 91.2996 168.038C90.9747 167.877 90.9156 167.676 91.1216 167.435C90.8634 166.956 91.1122 166.794 90.5592 166.211C89.697 165.303 88.9109 164.433 88.297 163.361C88.0168 162.87 88.0443 162.143 87.6959 161.718C87.2176 161.135 86.421 161.223 86.0099 160.501C85.6437 159.858 85.8888 158.733 85.2847 158.149C84.9663 158.058 84.6476 157.969 84.3289 157.881C84.0889 157.648 83.9493 157.364 83.9094 157.031C83.574 156.514 83.5073 155.906 83.0838 155.36C82.2731 154.314 81.1828 153.349 80.4667 152.246C79.7139 151.088 80.1131 150.893 81.4206 150.479C82.5997 150.104 83.6766 149.757 84.7698 149.12C89.8232 146.174 94.614 138.361 86.5929 135.974C83.6164 135.088 81.1712 132.705 77.8706 133.642C76.4398 134.048 75.0826 134.912 74.0152 135.938C73.2777 136.647 72.5946 138.543 71.6892 138.906C70.0612 139.559 70.7494 137.928 70.2874 137.178C70.0666 136.821 69.1786 136.408 68.8494 136.083C68.4633 135.701 68.0898 135.219 67.8215 134.747C67.3237 133.871 67.0191 133.382 66.3012 132.668C66.0307 132.399 64.6793 131.007 65.898 131.189C65.4045 129.682 66.1246 129.456 67.1203 128.355C68.2892 127.062 69.4963 125.266 69.5032 123.455C69.5166 119.977 65.4027 118.42 62.8189 120.484C62.2932 120.904 59.1836 124.958 59.82 122.372C60.163 120.978 63.3392 117.337 64.8117 118.279C63.1615 115.871 59.3707 121.719 58.486 122.916C57.7326 121.527 57.6793 120.44 56.4327 119.365C55.4178 120.995 55.9537 119.213 55.73 118.851C55.2467 118.069 55.5121 118.963 55.2499 118.686C54.9236 118.339 54.4098 118.067 54.0625 117.608C53.4675 118.417 53.7053 117.547 53.5229 117.245C53.0969 116.539 53.2615 116.13 52.5313 115.516C51.9997 115.069 50.9526 114.376 50.2372 114.313C49.4123 114.239 49.1839 114.556 48.3434 114.322C47.2741 114.024 45.9286 113.566 46.446 115.357C46.822 116.659 48.3499 117.399 48.6846 118.729C49.0214 120.068 47.6998 121.417 47.0588 122.514C46.2353 123.922 45.562 123.807 44.0703 124.125C43.1171 124.328 41.8448 124.762 42.6624 125.92C43.2462 126.748 44.6146 126.574 45.3851 127.064C46.4656 127.751 46.4507 129.446 47.8304 129.741C49.3496 130.065 50.2198 128.371 51.5008 127.962C52.4116 127.671 55.2333 127.703 55.9501 128.388C56.9269 129.321 56.0828 131.105 56.3286 132.264C56.6945 133.984 57.8558 134.089 59.3247 134.144C61.1329 134.211 61.7685 135.95 62.7409 137.33C65.0187 140.561 66.9984 144.005 69.3317 147.193C70.3647 148.605 71.8756 149.86 72.7211 151.393C73.7654 153.284 72.3157 154.376 71.0645 155.734C69.4296 157.508 68.2091 159.527 66.791 161.467C65.531 163.191 63.965 162.761 61.9516 162.761C62.4001 161.835 62.94 161.257 64.0441 161.369C62.8896 159.958 61.9665 161.572 61.2177 162.467C60.1343 163.761 58.722 164.073 57.3304 164.924C56.8381 165.224 54.1567 167.175 54.9715 167.841C55.0639 167.917 59.5027 164.992 60.0081 164.724C60.0081 165.804 59.7725 166.926 59.9237 167.999C60.0343 168.786 60.5868 169.608 60.469 170.426C60.246 171.971 58.2521 173.188 57.3964 174.392C56.7521 175.299 56.9077 176.014 56.5799 176.986C56.2808 177.873 56.4378 177.605 55.6926 177.879C54.1756 178.437 51.6219 178.136 50.2481 177.342C49.3953 176.85 48.7415 176.071 48.0486 175.385C47.5269 174.868 46.2143 173.984 46.0693 173.26C45.8205 172.014 48.2908 169.698 48.7796 168.413C50.1603 164.785 47.7926 161.965 44.108 161.759C45.2437 160.881 46.6512 161.542 47.8481 161.877C45.802 159.037 42.3071 161.374 40.5714 163.304C39.3854 160.301 38.8136 157.134 38.0891 154.002C37.5957 151.87 35.7171 148.064 36.555 145.869C36.96 144.807 38.1036 144.216 38.8944 143.479C39.7933 142.643 40.563 141.644 41.2201 140.608C42.7679 138.17 43.6621 135.092 41.5304 132.688C42.178 132.582 42.8259 132.475 43.4735 132.368C42.4202 131.377 40.7581 131.86 39.3912 131.566C38.5239 131.38 36.0278 131.5 35.4488 131.009C34.7523 130.417 35.1986 127.697 35.2236 126.892C35.2809 125.011 35.4379 123.202 35.6453 121.332C35.8418 119.565 35.8023 117.656 36.1667 115.921C36.4626 114.512 37.4082 114.083 38.4992 113.253C41.1069 111.268 43.232 108.854 42.3415 105.434C42.657 105.384 42.9724 105.334 43.2879 105.284C42.2676 104.545 40.9474 104.813 39.8125 104.423C40.8546 101.485 43.1595 96.3194 46.9021 96.0413C47.0309 97.3549 46.9427 98.9169 47.8275 100.004C48.8347 101.242 50.6027 101.367 51.9671 100.712C53.2053 100.117 54.3674 98.8569 54.9381 97.612C55.3243 96.7691 55.2547 95.344 55.9323 94.6757C56.841 93.7798 63.1068 94.3205 62.915 95.8328C62.8019 96.7218 61.1264 98.2163 60.6583 99.0044C59.8011 100.447 59.1151 102.006 58.8004 103.663C58.3228 106.178 58.5995 109.499 61.1496 110.821C64.0499 112.325 67.5844 110.413 69.9629 108.76C71.269 107.853 72.534 106.852 73.7269 105.8C74.3625 105.241 75.001 104.664 75.5612 104.028C75.9749 103.558 76.3053 102.801 76.8143 102.449C78.017 101.618 79.1958 103.028 80.2136 103.74C81.8713 104.9 83.5207 106.002 85.3003 106.967C88.9109 108.926 92.2122 111.522 95.4048 114.098C98.6159 116.69 101.927 119.357 104.528 122.586C102.953 123.556 103.234 123.809 102.533 125.54C102.035 126.769 101.35 127.815 101.271 129.181C101.134 131.537 102.645 133.545 104.937 134.066C106.219 134.358 107.44 134.124 108.628 133.6C109.551 133.191 110.471 132.187 111.435 131.938C113.228 131.475 114.662 134.867 115.667 136.062C120.129 141.368 124.847 146.465 129.049 151.987C129.514 152.599 130.897 153.794 131.009 154.604C131.171 155.767 129.344 156.875 128.586 157.543C128.188 157.892 123.969 161.868 125.386 162.5C125.79 162.679 126.972 160.241 127.267 160.032C128.374 159.251 127.537 160.782 127.471 161.556C127.306 163.479 128.625 164.527 130.479 164.283C132.458 164.023 134.219 162.459 135.443 160.981C136.977 162.761 139.376 165.451 139.819 167.829C140.103 169.348 138.791 173.066 141.24 173.376C141.614 173.423 142.967 172.417 143.22 172.988C143.43 173.465 141.967 174.279 141.756 174.437C140.855 175.111 140.31 175.833 139.583 176.65C138.728 177.608 137.561 178.415 136.6 179.333C135.587 180.301 133.584 182.928 132.247 181.658C131.576 181.021 131.753 180.187 130.677 179.812C129.697 179.471 128.456 179.904 127.546 180.282C126.521 180.707 123.145 182.26 122.771 183.539C122.254 185.302 125.044 183.182 125.54 182.873C124.974 184.311 124.662 186.393 123.221 187.232C122.024 187.929 120.303 188.339 118.99 188.743ZM99.8566 177.865C100.815 174.781 106.464 169.283 110.034 171.002C105.873 171.876 102.571 174.728 99.8566 177.865ZM101.969 186.696C100.577 185.919 100.652 183.661 100.166 182.34C99.8867 181.583 99.3287 181.029 99.493 180.188C99.6848 179.202 100.94 178.106 101.609 177.395C103.712 175.157 107.413 172.099 110.798 172.612C115.107 173.265 112.186 179.059 110.719 181.054C109.468 182.755 104.65 188.192 101.969 186.696ZM91.9175 182.924C87.2579 182.613 82.6143 182.196 78.0181 181.339C76.3887 181.035 75.0235 181.08 75.9557 179.203C76.2636 178.584 78.1196 174.703 78.5388 174.814C78.7872 174.88 78.7306 177.548 78.8035 177.853C79.1327 179.227 80.0566 180.507 81.6142 180.42C84.1628 180.277 85.8054 176.977 87.1473 175.205C88.2224 176.653 89.0005 178.261 90.081 179.685C90.5977 180.365 92.3957 181.948 91.9175 182.924ZM64.5996 164.604C63.8178 166.401 62.2457 168.11 61.1521 169.738C60.5339 168.427 60.0991 165.418 61.5654 164.448C62.1206 164.082 65.0938 163.468 64.5996 164.604ZM80.7603 169.954C80.9754 169.263 81.2136 168.577 81.4794 167.903C81.9351 169.34 82.1683 169.383 80.7603 169.954ZM84.7488 171.426C85.3144 172.387 86.2571 173.331 86.1092 174.537C85.9972 175.45 85.1727 176.387 84.5838 177.024C83.6092 178.077 81.4503 180.099 80.0384 178.7C78.8589 177.532 79.2698 174.319 79.8184 173.004C80.6015 171.126 83.4007 169.139 84.7488 171.426ZM81.9815 169.459C82.3057 169.329 81.6248 167.234 82.2567 167.025C82.8079 168.284 83.3275 168.625 81.9815 169.459ZM73.0779 141.253C72.868 140.48 72.3864 140.513 72.5598 139.557C72.6736 138.93 73.1703 138.261 73.5471 137.764C74.298 136.774 75.2886 135.958 76.3596 135.34C78.6211 134.036 81.7263 133.495 83.751 135.536C81.8583 135.835 76.0558 137.707 76.0188 140.3C78.1236 139.894 79.7788 137.776 81.8898 137.109C83.6226 136.561 85.5015 136.599 87.2253 137.178C91.9436 138.761 89.9816 142.846 87.3184 145.499C85.7376 147.074 83.842 148.25 81.7698 149.061C80.8108 149.437 80.2223 149.479 79.2795 149.29C79.103 149.254 78.8967 148.926 78.6849 148.856C78.1588 148.681 78.3115 149.273 77.8782 149.007C77.5 148.776 76.6936 147.281 76.4365 146.853C76.0272 146.172 75.8364 145.51 75.3339 144.889C74.831 144.266 74.5863 143.433 74.1211 142.87C73.8977 142.599 73.2853 142.61 73.121 142.346C72.8741 141.949 73.1885 141.66 73.0779 141.253ZM65.8316 171.717C66.9042 169.851 68.7388 168.266 70.1584 166.635C70.2454 169.316 68.3262 171.152 65.8316 171.717ZM67.2809 172.579C69.4955 171.799 70.7156 169.931 70.9415 167.667C71.2283 164.799 73.026 163.294 74.1084 160.717C74.5235 159.73 75.0072 156.481 76.616 157.411C77.1679 157.73 77.4953 158.93 77.7828 159.471C78.4786 160.782 79.2698 162.054 80.0076 163.341C80.6084 164.389 81.5091 165.443 81.244 166.705C81.0127 167.806 80.2691 168.978 79.8332 170.015C78.8046 172.466 77.4532 174.723 76.3241 177.119C75.8687 178.086 75.3295 180.375 73.9387 180.364C72.8379 180.354 72.9608 179.149 72.236 178.736C71.3212 178.214 70.2809 179.207 69.5293 179.618C70.3948 178.154 71.9078 177.325 73.6084 177.601C71.5721 175.57 70.1961 178.311 68.4484 178.921C66.7925 179.499 63.8548 176.772 62.4607 175.998C62.994 175.094 63.4759 173.987 64.3932 173.392C65.2631 172.827 66.3309 172.914 67.2809 172.579ZM49.2756 191.142C49.5182 189.972 50.2035 189.281 50.6378 188.219C51.1415 189.507 49.962 190.266 49.2756 191.142ZM84.4616 198.319C84.3427 202.258 84.0214 206.186 83.9054 210.125C83.8521 211.942 83.5309 213.675 83.3177 215.471C83.1375 216.99 83.2292 218.482 82.2749 219.779C80.7701 221.825 77.8444 222.413 75.5732 223.171C73.9053 223.727 72.2182 224.232 70.571 224.85C69.0887 225.406 67.8944 226.249 66.485 226.91C65.2243 227.502 63.8635 227.853 62.6086 228.483C61.3106 229.135 60.2848 229.93 58.9516 230.51C57.3555 231.205 56.0404 232.441 54.6209 233.423C53.3714 234.287 52.0494 234.954 50.9743 236.04C49.9663 237.059 48.6904 237.506 47.5483 238.412C46.3405 239.369 45.0762 239.992 43.7418 240.742C41.0083 242.281 37.3204 244.909 34.0307 243.414C34.9716 242.21 36.8973 241.054 37.0438 239.395C37.2341 237.235 35.357 238.03 34.27 238.72C32.6235 239.765 31.7127 241.026 30.4593 242.419C28.994 244.047 27.143 242.951 25.3501 242.494C26.576 241.388 27.7921 240.272 29.0158 239.165C30.0488 238.231 31.6297 237.22 32.2588 235.927C32.7084 235.003 32.6863 233.737 31.6014 233.257C30.3875 232.721 29.0147 233.852 28.1155 234.526C25.729 236.314 24.1572 238.582 22.5901 241.071C21.7565 242.395 21.3725 242.294 19.8388 242.029C18.2137 241.748 16.5885 241.45 14.95 241.253C17.1205 239.02 19.5462 236.601 21.2605 233.989C21.8159 233.142 22.5404 230.911 20.8482 230.706C20.1509 230.622 18.7626 232.05 18.2249 232.434C15.8743 234.117 13.6143 236.24 12.0566 238.697C11.5421 239.508 11.3807 240.41 10.3847 240.477C9.08267 240.566 6.6635 239.321 5.40751 238.936C7.80782 235.905 10.1915 232.852 12.9961 230.18C15.5729 227.723 18.1433 225.939 21.1571 224.055C24.387 222.036 27.3958 219.711 30.361 217.325C33.1997 215.042 36.1649 212.888 38.7777 210.338C43.9971 205.245 48.6458 199.387 52.4954 193.194C53.396 191.744 54.2441 190.257 54.9769 188.715C55.6655 187.267 55.9827 185.535 56.912 184.218C57.2329 183.763 57.6854 183.425 57.9715 182.95C58.2413 182.502 58.1499 181.962 58.5614 181.566C59.5132 180.651 61.2464 181.203 62.1358 181.844C63.5666 182.876 64.7239 184.128 66.2965 184.992C67.8781 185.86 69.5887 186.492 71.34 186.918C75.4329 187.915 79.4906 188.733 83.6603 189.338C83.2314 190.932 84.285 191.183 84.6342 192.618C85.0581 194.358 84.5149 196.546 84.4616 198.319ZM45.0508 171.741C44.1229 170.36 43.2948 168.916 42.3825 167.526C41.827 166.679 41.1385 165.77 41.6135 164.735C42.413 162.989 45.2342 162.679 46.7651 163.439C50.2455 165.17 47.0124 170.116 45.0508 171.741ZM35.8386 140.156C35.518 137.457 36.5485 135.542 38.9865 134.127C40.724 133.118 42.1233 134.497 41.8858 136.335C41.525 139.137 38.5362 142.253 36.2552 143.715C36.1062 142.53 35.9796 141.342 35.8386 140.156ZM35.4669 132.433C36.1859 131.861 38.112 132.591 38.9452 132.641C37.7994 133.644 36.6533 134.647 35.5072 135.649C35.4321 134.961 34.8034 132.961 35.4669 132.433ZM39.3335 106.366C45.132 105.611 38.4572 111.843 36.7766 112.82C37.05 111.494 37.7218 106.576 39.3335 106.366ZM54.7702 95.4533C53.9918 98.6478 47.9388 102.133 47.8753 96.9002C47.8521 94.9503 48.9453 95.1079 50.5414 94.9209C51.4519 94.8145 55.2155 93.6272 54.7702 95.4533ZM33.8625 100.4C33.183 102.187 32.638 104.019 31.972 105.808C31.6768 106.6 31.3298 107.144 30.7801 107.772C30.32 108.297 29.7725 108.429 29.7906 109.258C30.3671 109.147 30.8182 108.802 31.2838 108.471C31.171 110.115 30.5909 111.884 30.3099 113.523C29.9734 115.488 29.6931 117.454 29.589 119.447C29.3635 123.78 29.3617 128.098 29.4567 132.433C29.5053 134.643 29.527 136.853 29.646 139.06C29.7054 140.158 29.7725 141.26 29.9081 142.351C29.9632 142.792 30.2823 143.73 30.0851 144.143C29.3106 145.763 25.8798 141.312 24.3899 141.965C24.6042 140.732 24.11 141.001 23.2844 140.395C22.8845 140.101 22.6241 139.601 22.2072 139.339C22.081 139.203 21.9421 139.081 21.7906 138.975C21.6183 138.74 21.4363 138.765 21.2452 139.05C19.5665 138.045 19.1328 135.903 18.2318 134.463C17.7684 133.722 17.3206 133.606 17.2416 132.582C17.173 131.689 17.3072 130.78 17.2709 129.883C17.23 128.872 17.1709 127.757 16.8877 126.778C16.5592 125.641 16.107 125.734 15.2263 125.129C15.4975 125.009 15.6766 124.81 15.7633 124.529C15.4819 124.58 14.6273 124.929 14.4148 124.678C13.9972 124.185 14.9827 124.119 15.2415 123.922C14.1368 123.431 14.3746 123.027 14.7734 122.127C14.8862 121.872 14.9939 121.491 15.09 121.276C15.2996 120.807 15.4203 121.105 15.4896 120.521C15.5552 119.965 15.0632 118.872 14.9181 118.28C14.6752 117.286 14.5407 116.428 14.7589 115.392C14.9359 114.554 15.412 113.795 15.4449 112.933C15.4544 112.691 15.0864 112.611 15.0813 112.377C15.074 112.035 15.3924 111.885 15.475 111.57C15.6864 110.762 15.5911 109.908 15.9526 109.142C16.2778 108.453 16.9348 107.562 17.3997 106.962C17.722 106.545 18.5128 106.076 18.5994 105.527C18.6567 105.162 18.0907 105.204 18.1158 104.93C18.1502 104.558 18.4613 104.438 18.5465 104.162C18.7818 103.405 18.8409 102.677 19.449 102.096C20.2151 101.366 20.5476 101.672 20.5795 100.467C20.5948 99.8785 20.1252 99.7881 20.3768 99.1101C20.5135 98.7422 20.9167 98.5246 21.1745 98.2639C21.9403 97.4903 22.4566 96.8032 23.002 95.847C23.4842 95.0022 24.2532 94.5108 24.7474 93.7816C25.3907 92.8308 24.4287 92.3594 25.7344 92.091C25.5488 91.5009 25.3515 91.0236 25.8399 90.5239C26.1481 90.2087 26.9295 90.4015 27.2022 90.0369C27.5147 89.6185 27.0528 88.6267 27.5238 88.355C27.9067 88.1346 28.4799 88.8145 29.0818 88.4778C29.5401 88.2214 30.2326 86.8043 30.0851 86.2831C31.2707 86.9514 30.9752 86.4912 31.5427 85.6341C31.6699 85.442 32.0553 85.3995 32.1648 85.2052C32.3839 84.8177 32.3338 84.4226 32.6496 84.1074C33.1754 83.5829 34.0358 83.7177 34.6145 83.3429C35.0927 83.0335 35.0673 82.6997 35.4488 82.4077C35.7747 82.1582 36.3103 82.1103 36.6272 81.8517C37.2479 81.3451 37.2541 80.8105 38.0308 80.3739C38.9506 79.8579 39.7654 79.4184 40.6022 78.7338C41.1475 78.2879 41.6653 77.4965 42.3035 77.2023C43.186 76.7952 43.8735 76.7665 44.7368 76.1854C45.3608 75.7656 45.9507 75.0727 46.5631 74.7186C47.0254 74.452 47.3496 74.5094 47.9319 74.3442C48.9801 74.0463 49.2354 73.0571 50.0904 72.6543C50.6774 72.3779 51.532 72.6311 52.1767 72.4858C54.1825 72.0347 56.164 71.0618 58.1771 70.5228C60.634 69.8655 63.1086 69.2895 65.5843 68.7081C63.3091 71.7969 60.4113 74.5838 57.4722 77.0371C56.5074 77.8422 51.2209 81.5136 54.0704 83.0814C55.2144 83.7104 57.6992 81.6781 58.6227 81.1813C60.4824 80.1807 62.4085 79.3799 64.3563 78.5708C67.5057 77.2623 71.6073 74.935 75.1073 75.1224C72.9767 77.7406 70.3172 79.8422 67.8802 82.1549C65.6409 84.2806 62.2667 86.2741 63.3225 89.7533C60.1771 88.9517 57.3518 88.0042 54.0813 88.2141C52.6165 88.3082 51.1505 88.1313 49.6922 88.3372C48.1066 88.5617 46.6135 89.093 45.0896 89.5597C43.884 89.9283 42.5518 89.9574 41.4427 90.5708C40.9068 90.8675 40.244 91.2909 39.7625 91.6588C39.1203 92.1495 38.9746 92.4745 38.4702 93.121C36.6718 95.4279 34.9314 97.5902 33.8625 100.4ZM24.0245 144.061C23.9262 143.661 23.837 143.297 23.7242 142.841C24.7253 143.459 24.7253 143.459 24.0245 144.061ZM16.4584 131.345C16.3351 131.516 15.8166 131.571 15.6661 131.423C15.4787 131.24 15.9714 130.525 16.0505 130.374C16.2459 130.524 16.6955 131.016 16.4584 131.345ZM14.3151 126.717C14.4475 126.229 14.5806 125.742 14.7129 125.255C14.8757 125.706 15.6096 126.206 15.6259 126.636C15.636 126.922 14.4602 126.78 14.3151 126.717ZM14.7405 127.386C15.8891 128.143 16.0095 129.037 16.0436 130.344C14.669 129.888 14.8663 128.555 14.7405 127.386ZM34.7171 75.7932C34.6014 76.1077 34.109 77.0872 33.7486 76.4023C33.6333 76.1829 34.4774 75.8837 34.7171 75.7932ZM34.3875 74.7258C34.6714 74.4694 35.2436 74.7883 35.5648 74.5813C35.79 74.4357 35.7153 74.2886 35.8212 74.2025C35.8422 74.1851 36.1482 73.5648 36.2737 73.4239C36.4952 73.1766 36.9782 73.0222 37.2472 72.7985C37.9996 72.1738 38.4242 71.3527 38.8977 70.5174C39.4622 69.5201 39.6424 69.4046 40.5533 68.9477C41.1813 68.6329 41.6679 68.2476 42.1787 67.7126C42.7676 67.0963 42.7244 66.655 43.2077 65.9813C43.4467 65.6487 43.7904 65.6076 44.0685 65.3396C44.4021 65.0189 44.5714 64.5701 44.88 64.2465C45.0131 64.1063 45.4409 64.1066 45.5214 63.9868C45.6244 63.835 45.7045 63.2281 45.801 63.1163C45.9848 63.3654 46.1693 63.6145 46.3532 63.8637C47.0791 62.5849 47.6088 61.5285 48.8228 60.6776C50.0976 59.7838 51.198 58.4764 52.5157 57.6763C52.8119 57.4965 53.4152 57.4206 53.6415 57.1559C54.024 56.7073 53.6926 56.3086 53.9718 55.9276C54.2884 55.4958 54.9019 55.8455 55.3043 55.6592C55.8138 55.4239 55.9595 54.7357 56.6151 54.8116C54.4588 57.3672 54.4856 61.3433 54.3714 64.5352C54.3217 65.9105 55.1865 66.6038 53.9098 67.6127C52.8239 68.4716 51.2927 68.2167 50.0088 68.7818C48.3964 69.4914 46.6719 69.8688 45.0272 70.4872C43.3256 71.1268 41.9576 72.2465 40.3201 72.9873C38.8759 73.6403 37.8901 74.5686 36.5692 75.3748C36.0782 75.6745 35.3179 76.1095 34.7323 75.7514C34.3657 75.527 33.9089 75.158 34.3875 74.7258ZM58.7442 53.2986C58.8377 52.9354 60.6786 51.9814 61.1314 51.6701C61.8109 51.202 62.8171 50.0594 63.5756 50.5134C63.8385 49.4587 64.8643 48.2853 65.7703 48.062C66.7758 47.8136 68.5003 46.9503 69.4894 46.1964C69.7784 45.9763 69.8734 45.6545 70.2135 45.4479C70.8056 45.0883 71.3926 45.2844 71.9629 44.7945C72.05 44.7197 72.839 43.4148 72.8701 43.4272C72.9104 43.5673 72.9474 43.709 72.9793 43.8513C73.5779 43.5187 74.1113 43.2539 74.4844 42.8297C74.5688 42.7335 74.0202 42.4833 74.1936 42.293C74.4057 42.0594 74.8789 42.3202 75.0931 42.0987C74.4267 45.4126 74.9227 49.6777 78.2792 51.3574C74.2878 51.7896 70.3893 50.5875 66.3487 51.3258C64.4146 51.6796 62.4483 52.2595 60.6891 53.1508C59.6111 53.697 58.2326 55.6527 57.1597 54.703C57.5853 54.1343 58.2351 53.7809 58.7442 53.2986ZM78.1106 43.7656C79.6033 41.937 81.8673 41.2132 84.1473 41.868C86.8166 42.6351 85.6908 44.5032 85.2876 46.5777C84.5175 45.4464 82.8488 44.3246 81.4279 44.2904C79.4133 44.2425 80.1748 45.9236 81.3844 46.5258C82.4841 47.0731 84.3702 47.2256 85.1574 48.221C85.9236 49.1893 85.6299 50.7731 85.7535 51.9149C85.1578 51.8263 84.5621 51.7377 83.9663 51.6491C84.4663 48.9837 82.2658 48.8544 80.2143 48.103C78.141 47.344 76.4122 45.8466 78.1106 43.7656ZM84.7963 37.2024V39.6759C83.9667 39.2016 83.1364 38.728 82.306 38.2541C83.1364 37.9036 83.9667 37.5528 84.7963 37.2024ZM91.4682 56.967C94.2395 57.7191 96.9918 58.5152 99.6561 59.5532C100.623 59.9301 101.683 60.0634 102.631 60.4891C103.534 60.894 103.67 60.8519 103.349 61.6443C102.449 63.8648 100.318 63.4813 98.4512 63.1417C95.5288 62.61 92.6669 61.8728 89.7811 61.1791C86.9602 60.5018 84.0798 60.0573 81.3017 59.2082C78.4507 58.3373 75.6725 57.5121 72.74 56.9369C71.8843 56.7691 65.1141 56.147 65.1656 55.438C69.4292 54.8835 73.819 55.4301 78.1019 55.4878C82.5526 55.5477 87.1509 55.795 91.4682 56.967ZM87.706 48.3783C87.759 46.8515 87.7804 45.32 87.9696 43.8023C89.238 45.3705 90.383 45.8401 91.982 44.37C93.5128 42.963 93.8544 42.2294 95.7953 43.5521C97.4777 44.6997 99.0698 44.6467 100.857 43.6425C101.947 43.0298 103.698 40.5268 104.844 41.0422C105.39 41.2877 105.79 42.2777 106.341 42.642C107.033 43.0981 108.096 43.4148 108.902 43.592C110.807 44.0097 111.941 42.7832 113.136 41.4711C114.869 39.5688 114.818 40.6736 116.425 41.9926C118.217 43.4642 119.716 42.7455 121.339 41.4896C122.327 44.391 122.697 47.5593 122.977 50.6009C123.07 51.628 123.423 53.0861 122.502 53.8125C121.853 54.3246 120.475 54.3445 119.693 54.6274C116.899 55.6392 114.215 57.0749 111.878 58.9122C110.968 59.6283 110.174 60.505 108.93 60.342C107.744 60.1865 106.592 59.1925 105.639 58.5359C104.604 57.8241 103.557 57.0157 102.348 56.6191C101.639 56.3867 100.505 56.4709 99.8853 56.0445C98.733 55.2525 100.089 53.1744 99.8019 51.7794C99.5847 50.7204 98.9763 48.5123 97.5201 49.133C95.353 50.0565 96.614 53.6621 97.8058 54.7876C95.3678 54.354 92.6687 53.7206 90.3174 52.9158C88.5012 52.2944 87.6408 50.2403 87.706 48.3783ZM128.593 55.8143C133.598 54.4066 138.281 53.4577 143.489 53.2013C145.795 53.0876 148.026 53.1595 150.306 53.1802C151.619 53.1922 152.619 52.1321 151.57 50.9125C150.119 49.2241 145.693 49.867 143.732 49.7911C138.475 49.5877 133.655 50.1862 128.676 51.9218C129.203 50.9503 130.468 50.8243 131.334 50.322C132.398 49.7053 133.121 48.6895 133.575 47.5623C134.757 44.6303 133.567 41.8677 132.331 39.1896C134.759 39.8441 137.272 41.2772 139.713 41.6411C140.226 41.7173 140.554 41.6683 141.007 41.855C141.285 41.9694 141.373 42.3652 141.717 42.4517C141.884 42.4934 142.283 42.1168 142.472 42.1702C143.215 42.3808 142.627 42.4368 143.097 42.7415C143.471 42.9834 143.44 43.295 144.125 43.1806C144.428 43.1304 144.757 42.6601 144.917 42.6471C145.121 42.6307 145.074 42.3823 145.386 42.4546C145.953 42.5868 145.903 43.3186 146.092 43.6788C146.293 44.062 146.007 44.5719 146.619 44.7818C147.076 44.939 147.191 44.4549 147.58 44.4898C147.816 44.5109 148.306 44.8515 148.515 45.0593C149.187 45.7282 150.107 46.4666 151.011 46.9016C150.922 46.8123 151.437 46.5969 151.313 46.5465C151.231 46.5127 151.771 46.6434 151.763 46.6412C152.285 46.7604 152.561 47.5626 152.824 47.8553C153.309 48.3914 154.062 48.9576 154.742 49.1944C155.917 49.6037 155.881 49.1141 156.31 50.513C157.145 49.1973 157.466 51.4006 158.502 51.6432C159.039 51.7689 158.976 51.5386 159.463 51.8201C159.799 52.0129 160.021 52.6035 160.274 52.8886C160.382 52.4774 160.49 52.066 160.598 51.6552C161.345 53.0716 162.956 55.3171 164.722 54.9111C164.722 55.2975 164.563 55.7595 164.862 56.0892C165.07 56.3198 165.408 56.058 165.571 56.192C165.714 56.3089 166.055 56.7745 166.164 56.8512C166.379 57.0022 166.769 57.1123 166.956 57.263C167.12 57.3955 167.202 58.0286 167.384 58.257C167.727 58.687 168.32 58.7723 168.601 59.2877C168.665 58.7796 168.729 58.2708 168.792 57.7624C169.349 58.1931 169.396 58.5272 169.533 59.1573C169.728 60.0543 169.47 59.8441 170.088 60.2229C170.695 60.5951 171.011 60.5533 171.568 61.1994C172.113 61.8328 172.118 62.2229 172.905 61.5633C173.052 62.0514 173.099 62.6826 173.49 63.0567C173.785 63.3393 175.008 63.3516 175.124 64.0191C172.827 62.0779 174.339 65.0262 175.125 64.0242C175.291 65.0967 176.075 65.4431 176.97 66.2069C177.805 66.9187 177.942 66.8671 178.227 68.0631C178.22 68.0369 178.646 68.3013 178.677 68.3543C177.864 68.4705 179.124 69.3807 179.337 69.547C179.493 69.6686 179.696 69.3785 179.954 69.575C180.249 69.8001 180.49 70.3115 180.731 70.6198C181.382 71.4558 181.865 72.1738 182.551 72.8537C183.291 73.5873 183.651 74.5148 184.361 75.3723C185.15 76.3245 185.576 77.4191 186.236 78.4531C186.863 79.4362 187.695 80.2254 188.421 81.1257C189.578 82.5581 189.972 85.7133 192.128 85.7965C192.002 85.9272 192.178 86.9053 192.199 87.0857C192.301 87.9737 192.233 88.8283 192.758 89.6323C192.878 88.7149 193.357 89.0687 193.773 89.5506C194.466 90.3525 193.858 90.1506 193.894 90.9634C193.938 91.9483 194.05 91.1863 194.425 92.0463C194.718 92.72 194.879 93.1573 195.036 93.9047C193.818 94.0013 193.26 93.0044 192.81 92.038C192.622 91.6338 192.556 90.9695 192.223 90.6539C191.868 90.3176 191.381 90.2911 191.017 89.916C190.317 89.1951 190.014 88.071 189.19 87.3694C188.258 86.5769 188.052 86.2025 187.282 85.255C186.43 84.2069 185.254 83.4707 184.36 82.4571C183.466 81.4413 183.538 81.9959 182.414 81.6283C181.219 81.2368 179.286 77.4722 177.779 78.9223C177.839 77.9737 176.421 77.0814 175.704 76.7378C175.394 76.5893 175.033 76.7237 174.723 76.501C174.387 76.2595 174.363 75.7939 174.023 75.5038C174.023 75.5038 173.504 75.6305 173.398 75.5771C173.183 75.4682 173.182 75.0825 172.992 74.9554C172.467 74.6042 171.841 74.2359 171.284 73.9367C169.931 73.2092 168.734 72.3136 167.428 71.438C166.308 70.6877 164.954 69.3327 163.66 68.9372C162.53 68.5918 161.82 68.7676 160.895 68.0761C160.391 67.6992 160.539 67.5728 159.729 67.3385C158.958 67.1155 158.525 67.2303 158.116 66.4113C157.402 64.9783 157.853 62.1811 157.715 60.5741C157.568 58.8686 157.393 57.1206 156.95 55.4624C156.425 53.5023 155.731 52.4778 153.632 52.9394C149.473 53.855 145.365 54.7259 141.187 55.5299C132.862 57.1315 124.68 59.7456 116.538 62.0663C115.918 62.2436 112.458 63.0367 113.165 61.2448C113.491 60.4182 115.681 60.1103 116.413 59.8506C120.438 58.4241 124.48 56.9706 128.593 55.8143ZM127.195 52.1669C126.587 52.399 125.979 52.6311 125.371 52.8635V51.17C125.979 51.502 126.587 51.8343 127.195 52.1669ZM124.668 43.2125C125.196 43.6451 126.271 42.6042 126.719 42.3932C127.487 42.0333 128.464 41.7239 129.321 41.798C130.902 41.9349 132.059 43.494 131.769 45.0749C131.279 47.7493 127.474 49.0139 125.377 50.0594C125.31 49.1116 125.003 47.9723 125.667 47.1526C126.243 46.4408 127.36 46.4923 127.892 45.7351C129.229 43.8325 125.604 43.6599 124.794 45.1729C124.474 44.2058 124.155 43.239 123.835 42.2719C124.606 42.1441 124.267 42.8849 124.668 43.2125ZM128.41 37.9777C127.655 38.4666 126.9 38.9554 126.146 39.4442C125.771 37.7522 127.047 37.5296 128.41 37.9777ZM197.188 96.8668C196.2 97.3392 195.952 96.2109 195.242 96.1622C196.081 95.645 196.081 95.645 197.188 96.8668ZM201.208 121.506C201.331 123.128 201.235 124.768 201.45 126.384C201.615 127.613 202.112 128.756 202.165 129.999C202.281 132.721 201.363 135.493 199.51 137.488C197.757 139.376 195.249 141 192.882 141.794C191.816 142.151 190.703 142.943 189.668 143.236C188.522 143.56 187.433 142.855 186.488 144.12C185.858 138.693 186.318 133.023 186.269 127.562C186.219 122.09 186.278 116.615 185.354 111.202C184.53 106.38 182.908 100.957 179.917 97.0124C178.702 95.4108 177.206 94.099 175.628 92.8707C174.81 92.2337 173.991 91.5524 173.079 91.0494C171.676 90.2748 170.481 90.3819 168.955 90.1611C166.771 89.8455 164.741 89.5786 162.549 90.1945C160.508 90.768 158.261 91.4213 156.433 92.4179C154.612 93.4108 152.497 93.8201 150.607 94.7091C149.322 95.3142 146.651 97.3352 145.224 96.9713C143.843 96.6187 141.799 94.2711 140.917 93.2197C139.79 91.876 138.858 90.3184 137.858 88.8722C137.507 88.3648 136.792 87.58 136.701 86.9281C136.542 85.7968 136.995 86.1665 138.074 86.2929C140.849 86.6191 143.458 87.1348 146.117 88.0097C147.441 88.4447 150.029 90.2058 151.352 89.1504C153.373 87.5394 150.302 84.7701 149.178 83.8401C147.262 82.2548 145.034 81.0778 142.992 79.669C140.822 78.1724 137.952 76.5788 136.556 74.2741C140.634 75.4798 144.708 76.8606 148.666 78.4153C150.478 79.1264 152.268 79.8778 153.969 80.8235C154.925 81.3545 156.856 82.7912 158.006 82.103C160.508 80.6075 154.763 76.2635 153.934 75.3759C152.645 73.9966 151.383 72.6303 149.968 71.3788C149.013 70.5345 147.512 69.9407 147.068 68.6953C148.653 69.2702 149.935 70.3961 151.42 71.1609C152.197 71.5619 152.906 71.7925 153.764 71.9152C154.679 72.0463 154.788 72.1923 155.509 72.5566C156.07 72.841 156.647 73.2205 157.278 73.4137C157.727 73.5517 158.511 73.5753 158.904 73.8306C159.105 74.1172 159.312 74.3994 159.526 74.6761C159.766 74.7469 160.001 74.8279 160.234 74.9205C160.582 75.2314 160.788 75.6603 161.127 75.981C163.586 78.3096 166.874 79.9762 169.63 81.9272C172.238 83.7729 175.005 85.4424 177.51 87.4565C180.392 89.775 183.384 92.2668 185.835 95.0469C187.22 96.618 188.359 98.3993 189.523 100.137C190.366 101.395 191.591 102.438 192.32 103.735C193.908 106.563 195.226 109.62 196.935 112.403C198.677 115.238 200.947 118.055 201.208 121.506ZM177.779 137.914C178.254 135.952 180.934 133.66 182.646 132.795C181.784 134.933 179.484 136.392 177.779 137.914ZM182.198 144.761C180.737 147.796 174.315 148.143 175.187 143.652C175.613 141.451 177.426 140.1 178.981 138.66C179.7 137.995 181.461 135.614 182.574 135.998C182.522 137.709 182.422 139.429 182.425 141.14C182.427 142.283 182.715 143.687 182.198 144.761ZM180.342 109.778C180.934 111.111 181.525 112.221 180.425 113.414C179.929 113.952 178.313 115.13 177.582 114.868C175.234 114.029 179.71 110.378 180.342 109.778ZM166.143 97.9174C166.709 97.8865 167.258 97.9708 167.816 97.9363C168.373 97.9018 168.432 97.8027 168.948 97.8735C169.002 97.9526 169.056 98.0318 169.111 98.111C169.181 98.643 169.46 98.7008 169.947 98.2846C170.625 98.4357 171.065 98.5366 171.713 98.9031C169.965 100.165 167.837 101.633 165.694 102.057C162.307 102.727 163.243 98.0776 166.143 97.9174ZM114.217 126.307C113.866 127.015 112.856 125.247 112.606 124.918C113.072 124.916 114.573 125.593 114.217 126.307ZM141.433 107.679C144.064 106.141 147.19 104.79 150.016 103.645C150.513 106.043 148.09 109.139 146.596 110.781C145.389 112.108 143.934 113.484 142.297 114.248C140.527 115.074 138.593 114.711 138.679 112.394C138.711 111.547 138.903 110.185 139.248 109.41C139.691 108.413 140.53 108.205 141.433 107.679ZM105.859 64.0507C106.251 64.0278 110.506 63.4769 110.483 64.0071C110.416 65.6007 106.286 64.3492 105.859 64.0507ZM75.7712 94.8253C78.0185 92.0478 81.6465 89.0502 81.6994 85.1686C81.7778 79.4566 75.4492 82.3064 72.2675 82.5439C73.9499 80.8882 82.4043 73.9418 77.4035 71.4747C75.9662 70.7654 73.9231 71.4584 72.4807 71.8299C69.9216 72.4891 67.5423 73.6309 65.0281 74.4251C66.8247 72.5098 69.9285 70.3329 69.827 67.4322C69.7026 63.9011 66.8088 64.7549 64.3066 65.2728C63.345 65.4722 59.0495 67.1838 58.2424 66.0217C57.9468 65.596 58.4251 65.0553 58.5263 64.6761C58.7054 64.0057 58.6499 63.7714 58.6561 63.0865C58.6684 61.7046 59.585 59.9298 58.8374 58.6445C58.6666 58.9365 58.5201 59.2405 58.3983 59.5561C58.1517 58.8083 58.3174 58.0148 58.0708 57.2666C64.3178 58.8671 70.6729 59.7431 76.959 61.109C80.1414 61.8005 83.1364 62.991 86.3623 63.527C89.6158 64.0671 92.8127 64.894 96.072 65.4093C99.0459 65.8789 101.895 66.6616 104.84 67.2615C107.711 67.8466 110.655 66.5646 113.457 65.9152C119.733 64.4615 126.007 62.9721 132.291 61.5615C139.543 59.9327 147.087 58.5406 154.028 55.8248C154.162 59.4446 154.451 63.0574 154.893 66.6525C151.828 65.2009 147.278 63.308 144.179 65.9054C142.939 66.9445 142.557 68.7386 143.047 70.2646C143.581 71.9258 145.215 72.6972 146.293 73.9476C143.012 73.1046 134.545 67.1631 133.038 73.1689C131.973 77.4108 137.166 80.1506 139.704 82.5381C137.183 82.0438 133.807 80.0249 132.327 83.2695C131.047 86.0747 132.588 89.1268 134.167 91.4402C135.022 92.6939 135.984 93.8735 136.893 95.0879C137.374 95.7304 137.844 96.3819 138.349 97.0055C138.856 97.6305 139.811 98.2857 140.167 98.9583C140.882 100.315 139.439 100.399 138.317 100.889C136.916 101.501 135.713 102.529 134.432 103.349C131.498 105.225 128.934 106.967 125.467 107.567C121.898 108.184 118.461 108.829 114.939 109.69C111.427 110.548 108.561 111.372 104.972 110.263C103.336 109.758 102.003 109.308 100.267 109.403C98.444 109.503 97.378 109.408 95.8791 108.277C89.4294 103.412 82.4282 99.4188 75.7712 94.8253ZM64.1431 89.9403C66.6358 88.6877 69.1453 87.4286 71.7204 86.3525C73.8517 85.4609 77.0881 84.4226 79.4213 84.8134C78.7636 86.5058 77.5634 87.8942 76.2759 89.1402C75.1374 90.2425 73.715 91.9058 72.3375 92.675C71.0862 93.373 69.6308 92.2672 68.3969 91.8037C67.0412 91.2949 65.1753 91.0578 64.1431 89.9403ZM64.7696 96.2606C66.0118 95.7434 68.6815 97.4787 69.8114 97.9298C72.0318 98.8166 74.2643 99.7427 76.2211 101.142C73.8317 103.908 71.1257 106.436 67.9103 108.213C65.795 109.381 62.2293 110.722 60.2337 108.6C57.7267 105.933 60.7406 100.499 62.5154 98.2138C62.5742 98.6049 62.6333 98.9953 62.6924 99.3864C63.2587 98.4785 63.6909 96.7099 64.7696 96.2606ZM110.374 119.932C108.824 120.259 108.298 119.964 107.274 118.773C106.583 117.969 105.903 117.133 105.124 116.41C104.328 115.672 102.362 113.891 104.866 114.916C107.149 115.851 109.104 116.318 111.615 115.952C114.487 115.534 117.164 114.317 119.995 113.702C118.442 115.062 116.902 116.436 115.347 117.792C113.704 119.225 112.461 119.492 110.374 119.932ZM110.728 130.872C107.332 133.432 100.495 133.155 102.796 127.522C103.146 126.667 103.635 125.862 104.201 125.133C104.389 124.89 104.725 124.385 104.994 124.222C105.745 123.766 105.537 123.71 106.259 124.471C106.882 125.128 111.752 130.49 110.728 130.872ZM109.721 121.085C110.033 120.984 111.343 120.222 111.642 120.644C111.945 121.07 109.374 122.545 109.721 121.085ZM134.446 160.127C133.682 161.957 127.571 164.607 128.709 160.918C129.214 159.284 129.689 158.046 131.592 157.922C132.689 157.851 135.118 158.516 134.446 160.127ZM145.409 135.326C146.415 133.859 149.737 131.875 151.156 134.063C151.839 135.117 150.181 135.657 149.178 135.386C148.639 135.24 148.199 134.918 147.613 134.894C146.86 134.863 146.125 135.454 145.409 135.326ZM148.076 136.783C147.392 137.476 143.266 140.954 142.597 140.417C143.945 138.488 145.492 136.334 148.076 136.783ZM141.337 171.973C139.905 172.055 140.62 169.892 140.758 169.027C141.105 169.63 142.929 171.883 141.337 171.973ZM144.977 168.097C144.514 167.271 143.265 166.042 143.547 164.979C143.764 164.166 145.713 163.073 146.529 163.54C147.613 164.159 146.042 168.234 144.977 168.097ZM178.974 159.435C178.361 161.55 177.726 161.004 175.804 161.414C173.876 161.825 172.543 163.465 170.846 164.344C171.436 163.096 171.802 161.575 172.788 160.561C173.017 160.327 174.416 159.865 173.619 159.324C172.922 158.85 171.92 160.387 171.621 160.806C170.151 162.868 169.122 165.386 168.274 167.758C167.856 168.923 167.522 170.11 167.324 171.334C167.148 172.424 167.338 173.565 167.158 174.627C166.869 176.338 164.55 176.346 163.155 176.787C161.892 177.186 160.635 177.619 159.324 177.834C158.188 178.02 157.009 177.681 155.908 177.905C154.715 178.148 154.18 178.857 152.824 178.696C151.719 178.566 150.685 178.057 149.565 178.006C148.517 177.959 147.471 178.322 146.429 178.026C145.378 177.728 145.429 177.612 145.668 176.578C145.817 176.857 145.967 177.136 146.117 177.415C146.536 177.086 146.826 176.082 147.083 175.611C147.481 174.881 147.806 174.628 147.658 173.719C147.44 172.376 146.232 171.421 145.958 170.144C145.671 168.811 146.655 167.722 147.237 166.609C148.032 165.086 148.021 163.957 147.355 162.382C147.857 162.515 148.359 162.648 148.862 162.781C148.173 161.284 145.838 161.89 144.667 162.334C144.079 162.557 143.146 163.433 142.513 163.41C141.643 163.38 141.189 162.234 140.815 161.603C139.733 159.778 138.498 157.975 137.218 156.279C136.866 155.814 136.404 155.514 136.526 154.983C136.63 154.532 137.639 153.892 137.966 153.615C139.194 152.575 140.757 151.999 141.91 150.904C143.653 149.25 145.662 148.065 147.444 146.444C149.301 144.755 151.213 143.204 153.148 141.608C155.107 139.991 156.804 138.086 158.75 136.453C159.254 137.368 160.23 140.644 161.346 140.897C162.648 141.192 162.61 139.649 162.545 138.721C162.453 137.398 161.719 136.112 161.638 134.85C161.55 133.499 162.847 132.895 163.826 132.114C165.339 130.907 168.687 128.157 166.887 125.895C165.337 123.946 160.296 127.683 158.907 128.806C157.726 129.761 156.814 130.625 155.485 131.378C154.55 131.907 152.982 133.943 151.873 133.755C150.555 133.532 150.041 132.09 148.428 132.137C146.852 132.184 145.514 133.32 144.537 134.461C142.328 137.041 141.569 140.493 139.556 143.182C138.564 144.508 137.277 145.603 136.2 146.857C135.018 148.234 134.767 149.82 133.601 151.167C130.265 146.716 126.631 142.502 123.113 138.197C121.356 136.047 119.636 133.871 117.917 131.691C117.273 130.874 116.546 130.108 115.956 129.25C115.148 128.074 115.293 127.13 114.976 125.819C114.836 125.239 114.177 124.543 114.353 123.987C114.591 123.242 116.256 122.656 116.856 122.351C119.309 121.104 121.533 119.546 123.82 118.022C128.054 115.202 132.337 112.557 136.841 110.148C136.763 111.186 136.089 112.261 136.542 113.303C136.753 112.704 137.087 110.035 137.885 109.92C137.732 109.942 137.858 113.342 137.982 113.828C138.35 115.277 139.419 116.268 140.95 116.258C143.864 116.239 146.475 113.064 148.093 110.961C149.188 109.537 150.24 107.881 150.625 106.098C150.972 104.498 150.591 103.385 152.251 102.573C155.659 100.906 159.094 99.5473 162.738 98.6634C162.575 100.236 162.12 102.173 163.547 103.304C165.123 104.553 167.185 103.44 168.668 102.614C170.138 101.796 172.403 99.5481 174.129 100.201C175.827 100.843 177.009 102.976 177.959 104.392C178.796 105.64 179.708 106.54 178.738 107.931C177.651 109.49 176.943 111.012 176.072 112.705C175.738 113.356 175.418 113.781 175.655 114.448C175.732 114.664 176.604 115.953 176.841 116.138C178.353 117.317 180.395 115.075 181.475 114.224C181.855 117.888 181.941 121.537 182.094 125.213C182.207 127.905 183.247 130.556 181.041 132.524C178.836 134.492 176.995 136.512 175.651 139.176C174.933 140.599 174.289 142.06 173.513 143.454C172.994 144.384 171.899 145.75 172.569 146.846C173.276 146.174 173.486 145.153 174.075 144.396C174.428 145.967 174.783 147.711 176.443 148.378C178.353 149.144 180.251 147.818 181.943 147.08C181.336 151.282 180.153 155.366 178.974 159.435ZM177.022 164.265C175.711 167.072 174.527 170.455 172.106 172.521C171.575 172.975 169.316 174.746 168.457 174.449C167.728 174.197 168.129 172.721 168.256 172.088C168.901 168.877 170.017 166.856 172.617 164.808C173.692 163.96 175.074 162.876 176.461 162.667C177.955 162.441 177.525 163.187 177.022 164.265ZM213.996 230.874C210.597 226.245 205.794 222.647 201.254 219.17C199.198 217.594 196.932 216.413 194.855 214.837C192.506 213.056 190.121 211.337 187.49 209.995C182.502 207.449 177.061 205.675 172.354 202.664C170.058 201.196 167.547 199.778 165.389 198.129C164.441 197.405 163.603 196.479 162.747 195.65C161.951 194.879 160.242 193.761 159.925 192.633C161.25 192.416 162.003 191.129 163.185 190.997C163.575 190.954 166.015 191.6 165.681 190.415C166.567 190.393 166.669 190.38 167.411 190.185C167.718 190.105 168.083 190.231 168.393 190.121C168.869 189.953 169.192 189.467 169.672 189.281C170.013 189.149 171.28 189.297 171.472 189.132C171.996 188.683 171.439 188.723 171.126 188.162C172.146 188.137 172.845 188.652 173.867 188.104C174.178 187.937 174.442 187.552 174.743 187.353C175.278 186.999 175.471 187.547 175.837 186.813C176.18 187.826 176.17 187.546 176.996 187.248C177.819 186.951 178.413 186.736 179.35 186.662C181.589 186.485 183.835 186.757 186.063 186.598C186.879 186.539 187.575 186.354 188.385 186.46C189.098 186.554 188.883 187.051 189.476 186.382C189.614 186.226 189.169 185.801 189.382 185.577C189.476 185.478 189.783 185.548 189.899 185.497C190.941 185.042 190.946 185.678 191.131 186.507C191.742 186.364 192.365 186.234 192.896 185.875C192.627 185.636 192.179 185.371 192.438 184.933C193.319 185.267 193.895 185.113 193.454 186.082C194.341 186.375 194.507 185.993 195.303 185.909C195.774 185.86 196.431 186.152 196.824 185.776C197.252 185.365 196.576 184.918 197.363 184.564C197.525 184.646 197.644 184.77 197.722 184.936C198.147 185.065 198.071 185.232 197.493 185.439C199.041 186.242 198.677 185.344 199.327 184.394C199.477 184.175 200.15 183.494 200.456 183.823C200.92 184.321 199.972 184.48 200.175 184.975C200.528 185.834 201.757 184.733 202.135 184.298C202.42 183.97 202.537 183.339 202.845 183.094C203.272 182.752 203.887 183.28 204.423 183.185C206.868 182.756 209.178 179.462 207.335 177.258C206.84 176.665 206.421 176.783 205.831 176.409C205.248 176.04 204.921 175.4 204.453 174.872C203.384 173.667 202.076 172.764 200.582 172.187C197.117 170.848 193.383 169.872 189.744 169.153C188.058 168.82 186.264 168.311 184.539 168.315C183.522 168.316 181.992 169.108 181.041 168.729C179.194 167.991 181.906 164.217 182.354 162.997C183.669 159.415 184.661 155.596 185.311 151.835C185.438 151.099 185.389 150.146 185.654 149.445C185.958 148.639 186.023 148.752 186.673 148.687C187.848 148.568 189.133 149.185 190.356 148.972C191.712 148.736 193.177 148.845 194.546 148.425C195.175 148.232 195.758 148.023 196.172 147.491C196.303 147.324 196.157 147.179 196.24 147.062C196.266 147.025 196.734 146.52 196.749 146.49C196.744 146.229 196.767 145.969 196.817 145.712C197.291 146.107 197.057 146.934 197.857 146.953C197.999 146.071 198.001 145.893 198.579 145.397C198.535 145.435 199.014 145.027 198.953 145.071C198.982 144.914 199.039 144.767 199.125 144.631C199.395 144.501 199.681 144.431 199.981 144.423C200.606 143.78 200.347 143.437 200.347 142.57C200.851 142.833 201.355 143.095 201.859 143.357C201.981 140.791 203.541 139.386 204.577 137.307C205.019 136.42 205.469 135.728 205.575 134.659C205.635 134.042 205.477 133.498 205.732 132.917C205.962 132.39 206.48 132.106 206.696 131.531C207.121 130.401 206.804 128.958 206.827 127.784C206.86 126.156 207.022 124.534 207.075 122.907C207.179 119.713 206.859 116.431 206.382 113.273C206.154 111.763 205.772 110.298 205.472 108.804C205.225 107.576 204.635 106.424 204.424 105.281C204.337 104.807 204.472 104.381 204.329 103.856C204.141 103.166 203.826 102.487 203.592 101.809C203.046 100.226 202.505 98.6449 201.89 97.0861C200.698 94.0652 199.303 91.1351 197.978 88.1724C196.703 85.3233 195.647 82.3856 193.996 79.7253C192.37 77.105 190.618 74.5286 188.826 72.0202C186.959 69.4083 184.598 67.1638 182.788 64.5276C179.388 59.5779 174.646 55.4991 169.684 52.131C159.447 45.1806 148.384 38.241 136.108 35.8579C134.257 35.4991 132.383 35.2499 130.498 35.2034C129.328 35.1744 127.39 35.7409 126.282 35.3444C125.041 34.8998 125.155 33.5042 124.844 32.4095C124.445 31.0019 123.544 30.0801 122.521 29.0851C121.444 28.0377 120.467 26.8145 119.124 26.1023C117.763 25.381 116.157 25.1112 114.649 24.8933C113.303 24.6979 111.291 24.8802 110.061 24.2926C108.941 23.7573 109.494 23.1998 110.543 23.6581C110.62 23.1947 110.682 22.8955 110.979 22.5374C111.127 22.3573 111.831 22.1048 111.848 21.9367C111.868 21.7403 111.278 21.1802 111.193 20.9265C111.012 20.3804 111.115 19.6241 111.33 19.1115C112.388 20.0532 112.694 20.4702 113.875 19.5701C114.374 19.19 114.527 19.0225 115.104 18.8307C115.261 18.7786 115.612 18.9394 115.749 18.8492C116.271 18.505 115.791 18.5862 116.039 18.1793C115.976 18.282 116.415 17.2007 116.394 17.4268C116.447 16.8508 116.617 17.0278 116.27 16.3202C115.59 14.9358 113.859 14.8792 114.741 13.2993C115.088 12.6777 115.394 12.7396 115.492 11.8384C115.544 11.3537 115.479 10.7982 115.477 10.3053C115.472 9.29719 115.662 8.59144 114.719 8.07816C113.813 7.5845 112.976 8.1261 112.608 6.90173C112.223 5.61704 112.611 3.96997 111.222 3.09022C110.206 2.44748 108.74 2.997 107.618 2.68263C106.494 2.36783 105.46 1.21559 104.319 2.10025C103.508 2.72905 103.078 4.27493 101.551 3.43894C100.861 3.06193 100.482 1.79605 100.047 1.08616C99.3541 -0.045349 98.7986 -0.454101 97.7326 0.64795C97.0756 1.3277 95.6902 2.98229 95.6053 3.9232C95.5125 4.96184 96.4171 5.39587 95.2812 6.01029C94.1513 6.62169 93.5176 6.17335 92.6002 7.41428C91.6905 8.6454 92.3946 9.32552 91.3409 10.5034C90.0233 11.9757 89.3224 12.6113 89.3409 14.595C89.3536 15.9556 88.1535 17.1309 88.8536 18.4216C89.6383 19.8682 91.9283 20.4698 93.3167 21.0586C92.8533 21.9165 92.2173 22.4666 92.7583 23.3494C93.2485 24.1492 94.6339 24.3155 95.4929 24.1702C96.0705 24.0725 96.0912 24.1604 96.5459 23.7533C96.8439 23.4871 96.4353 23.1544 97.0488 23.007C97.7014 22.849 98.7442 24.1306 99.1681 24.4513C98.2206 25.6828 95.6187 25.9131 94.242 26.537C93.4033 26.918 92.6321 27.4813 91.7779 27.8216C91.003 28.1303 90.0599 28.0587 89.3572 28.5363C88.144 29.3614 87.639 31.4054 86.8953 32.6071C86.0534 33.9676 85.2372 34.5991 83.6219 34.8817C81.607 35.2336 79.9844 35.3752 78.1051 36.2541C75.8103 37.3276 73.5482 38.4608 71.2943 39.6182C67.659 41.4845 64.2819 43.4003 60.9063 45.6574C57.3747 48.0195 53.9396 50.4847 50.532 52.9525C47.1614 55.3934 44.3318 58.3961 41.4039 61.3476C39.0373 63.7337 36.9604 66.3093 34.6029 68.6946C31.8197 71.5114 29.7725 75.0661 27.192 78.054C25.7801 79.6886 24.4291 81.296 23.5433 83.2216C22.8254 84.7829 21.5766 86.3144 20.7431 87.9519C19.6781 90.0456 18.6702 92.1059 17.4743 94.1306C16.9838 94.9612 16.4007 95.6741 15.883 96.4673C15.2194 97.4827 15.2586 98.4636 15.0802 99.6345C14.8938 99.3487 14.7078 99.0629 14.5215 98.7778C14.1835 99.5165 13.7752 100.244 13.4826 101C13.2959 101.483 13.3253 102.168 13.1378 102.591C12.9025 103.121 12.6161 103.051 12.3227 103.492C12.0091 103.964 11.9079 104.598 11.5776 105.105C10.1487 107.294 9.59899 110.072 8.86476 112.57C7.87998 115.921 8.03516 119.772 8.08883 123.227C8.14575 126.877 8.34481 130.527 8.89268 134.138C9.38906 137.408 10.45 140.545 12.111 143.412C13.5584 145.911 15.5541 147.367 18.1107 148.647C19.2847 149.234 20.3743 149.053 21.6064 149.147C22.9563 149.25 23.8769 149.617 25.3051 149.294C25.99 149.138 26.3145 148.639 26.8588 148.472C27.1956 148.37 27.3773 148.538 27.7007 148.498C28.1634 148.442 29.1257 148.215 29.6275 148.27C31.1891 148.44 30.927 150.805 31.0807 152.012C31.3171 153.872 31.4901 155.751 31.8092 157.599C32.4796 161.486 33.9274 165.117 34.7827 168.936C30.8175 169.421 27.4161 170.162 23.6996 171.665C19.9711 173.173 16.2013 173.685 12.2774 174.434C8.60659 175.135 5.07574 176.446 2.13735 178.82C0.760252 179.932 -0.67051 181.233 0.34074 183.065C0.987593 184.237 2.15331 184.534 3.15948 185.215C3.36289 184.957 2.77478 184.412 2.66709 184.26C3.513 184.434 3.48726 184.83 4.1051 185.174C4.64499 185.475 5.08698 185.464 5.678 185.677C7.12109 186.196 7.8303 187.492 9.25671 187.855C9.70559 187.97 10.2926 188.243 10.7513 188.321C11.3028 188.414 11.7154 188.173 12.2741 188.275C12.5755 188.474 12.9018 188.616 13.252 188.701C13.4819 188.595 13.7089 188.482 13.9326 188.363C14.7354 188.446 15.231 188.952 15.8833 189.367C15.9268 188.844 15.8641 188.301 16.3587 187.959C16.5519 188.468 16.2397 188.79 16.7669 189.141C17.4348 189.585 18.3119 189.03 18.9098 188.749C19.0792 190.441 22.9904 190.342 24.23 190.318C25.9469 190.285 27.6619 189.602 29.394 189.983C30.2776 190.177 31.2207 190.38 32.1003 190.632C33.1594 190.935 34.4397 191.206 35.4821 191.588C35.8969 191.74 36.4046 192.227 36.8458 192.194C37.1972 192.168 37.2914 191.649 37.7004 191.664C38.1631 191.681 38.3187 192.197 38.7189 192.353C39.3187 192.585 39.8698 192.143 40.4394 192.366C40.6443 192.446 40.9217 192.79 41.1838 192.902C41.5816 193.072 42.3691 193.074 42.8118 193.156C43.4394 193.273 44.0015 193.194 44.5392 193.233C44.9728 193.264 44.9634 193.556 45.1708 193.575C45.409 193.597 45.8234 192.777 46.1432 192.657C46.6088 192.482 47.454 192.899 47.929 192.972C44.4884 197.643 40.3401 201.772 35.8433 205.387C30.993 209.286 26.0259 213.181 20.8246 216.602C16.102 219.707 11.5305 222.393 7.8691 226.778C4.78169 230.474 -0.132794 234.43 0.624646 239.788C1.38172 245.142 7.18562 247.32 11.8361 248.342C17.6854 249.628 23.7065 249.11 29.5713 249.833C32.0724 250.141 34.8512 249.977 37.369 249.714C40.3426 249.404 42.8912 247.46 45.4478 246.055C50.0461 243.527 53.9773 240.144 58.5067 237.537C64.1779 234.272 69.7892 230.813 76.0065 228.627C78.8988 227.609 81.8764 226.448 84.2096 224.356C84.557 224.045 84.8155 223.575 85.2078 223.318C85.8746 222.883 86.0534 223.325 86.4406 223.192C86.7383 223.091 87.0269 222.769 87.2843 222.672C87.9366 222.427 88.2278 222.528 88.9584 222.528C88.3315 222.166 87.7575 221.233 88.4084 220.472C89.5222 219.17 89.7144 221.251 90.1328 221.734C90.4878 221.277 90.3518 220.871 90.2612 220.352C90.5607 220.55 90.8609 220.748 91.1608 220.947C90.9541 219.942 91.1506 219.017 91.6818 218.142C92.1716 217.335 92.2927 217.449 92.4276 216.331C93.9494 217.722 94.2467 214.346 94.3838 213.114C94.5161 211.921 94.3852 211.064 95.1691 210.019C96.0107 208.899 97.2902 208.19 98.3584 207.32C100.046 205.943 101.903 204.206 104.236 205.525C106.078 206.567 107.081 209.121 108.809 210.433C109.857 211.23 110.964 211.31 111.632 212.545C112.173 213.543 112.348 214.737 112.858 215.762C114.094 218.246 115.873 221.088 117.902 222.993C119.791 224.767 122.216 224.758 124.427 225.857C126.615 226.947 128.889 228.127 131.205 228.916C133.735 229.777 136.463 230.144 138.926 231.188C140.193 231.726 141.326 232.535 142.604 233.049C143.983 233.604 145.435 233.994 146.832 234.502C152.366 236.516 157.782 238.985 163.596 240.101C166.175 240.596 168.562 241.941 171.16 242.224C172.274 242.345 173.183 242.499 174.273 242.778C175.984 243.216 175.621 243.449 176.252 244.877C177.288 247.229 179.82 245.836 181.771 245.895C184.895 245.99 187.971 245.484 191.09 245.46C196.544 245.418 201.795 244.802 207.071 243.009C212.368 241.208 218.398 236.869 213.996 230.874Z" fill="#006078"/>
<path fill-rule="evenodd" clip-rule="evenodd" d="M150.952 47.1309C151.027 47.2056 151.202 47.2509 150.952 47.1309V47.1309Z" fill="#006078"/>
<path fill-rule="evenodd" clip-rule="evenodd" d="M54.882 147.293C56.0665 146.091 61.1065 146.334 61.4876 148.485C61.9121 150.886 57.4088 154.512 55.7605 155.528C53.6398 156.837 51.0509 157.082 51.4269 153.797C51.7112 151.316 53.1952 149.005 54.882 147.293ZM59.0441 144.818C59.1978 145.483 58.0651 145.257 57.7533 145.099C57.6061 144.797 58.8904 144.151 59.0441 144.818ZM50.3529 149.221C51.358 149.311 52.5099 147.696 53.2685 147.146C53.6035 147.665 51.3932 150.517 51.1499 151.168C50.5426 152.794 50.2046 154.849 51.0328 156.472C53.4527 161.212 59.6456 154.443 61.1946 152.078C62.2784 150.424 63.0285 148.374 61.4977 146.753C60.9527 146.176 60.0524 146.015 59.5463 145.467C58.8798 144.745 59.4041 143.814 58.0644 143.971C57.1398 144.08 56.0299 144.915 55.1311 145.218C54.0477 145.582 53.0738 145.96 52.1281 146.634C51.9149 146.786 49.1111 149.109 50.3529 149.221Z" fill="#006078"/>
<path fill-rule="evenodd" clip-rule="evenodd" d="M121.401 150.812C120.769 154.069 117.547 157.41 114.156 157.54C110.78 157.669 109.687 154.125 110.283 151.301C110.791 148.893 112.87 144.708 115.835 145.17C118.166 145.532 121.942 148.02 121.401 150.812ZM119.251 145.368C117.11 143.709 114.152 142.941 111.671 144.258C110.858 144.689 107.61 146.593 108.598 147.882C109.931 146.848 111.081 145.413 112.812 145.069C112.521 146.413 110.858 147.622 110.272 148.932C109.587 150.461 109.213 152.211 109.325 153.892C109.525 156.883 111.525 159.208 114.622 158.797C117.457 158.42 119.936 156.243 121.288 153.796C123.095 150.529 122.077 147.558 119.251 145.368Z" fill="#006078"/>
<path fill-rule="evenodd" clip-rule="evenodd" d="M99.3708 158.215C97.8465 160.476 95.5223 162.602 92.8352 163.301C89.3562 164.204 90.3337 161.325 91.3733 159.258C92.2924 157.431 93.8693 154.288 96.2707 154.305C97.0858 154.31 98.6036 154.705 99.3179 155.142C100.726 156.002 100.173 157.026 99.3708 158.215ZM96.1239 153.247C96.671 152.637 99.0931 150.021 99.4176 152.06C100.113 151.252 99.5644 150.582 98.6739 150.497C97.6 150.394 96.4255 151.592 95.6503 152.188C94.055 153.412 92.8269 154.666 91.7696 156.383C90.6039 158.276 87.6318 162.554 90.2329 164.432C93.0444 166.462 97.1366 162.713 98.8973 160.779C100.023 159.543 101.514 157.726 101.086 155.913C100.56 153.685 97.9734 153.451 96.1239 153.247Z" fill="#006078"/>
<path fill-rule="evenodd" clip-rule="evenodd" d="M84.1274 116.817C82.5542 118.615 79.3583 121.235 76.7249 120.926C74.3231 120.644 75.2608 117.944 76.1107 116.638C77.3877 114.674 79.0984 112.83 81.5701 112.722C82.6372 112.676 84.0201 112.698 84.8464 113.507C85.9752 114.612 84.9588 115.867 84.1274 116.817ZM83.9603 111.821C82.1173 111.184 81.3932 110.941 79.602 111.955C78.1636 112.769 76.8881 113.92 75.9011 115.227C74.4239 117.183 72.9341 121.583 76.7271 122.133C80.8877 122.737 90.7845 114.185 83.9603 111.821Z" fill="#006078"/>
<path fill-rule="evenodd" clip-rule="evenodd" d="M89.631 123.047C88.4341 124.272 86.9398 125.271 85.2342 125.612C85.9558 124 87.5668 120.477 89.4769 119.986C90.3568 119.759 91.3601 120.056 91.288 121.06C91.2354 121.786 90.103 122.564 89.631 123.047ZM91.1716 118.785C90.1806 118.287 90.4932 117.947 89.3402 118.338C88.4315 118.645 87.2854 119.179 86.5287 119.793C86.1161 120.129 84.8307 121.318 84.988 121.923C85.273 123.022 86.2317 121.337 86.4837 121.013C86.9155 121.366 84.707 124.531 84.5758 125.052C84.0859 126.992 85.6063 127.197 87.0961 126.562C89.1052 125.707 95.0549 120.734 91.1716 118.785Z" fill="#006078"/>
<path fill-rule="evenodd" clip-rule="evenodd" d="M120.629 170.984C120.778 169.698 120.988 168.338 122.167 167.616C123.228 166.965 124.328 167.06 124.485 168.395C124.632 169.635 123.419 171.836 122.438 172.513C121.072 173.455 120.809 172.281 120.629 170.984ZM122.384 173.911C125.189 172.267 126.957 164.728 121.787 166.841C118.849 168.042 119.93 175.349 122.384 173.911Z" fill="#006078"/>
<path fill-rule="evenodd" clip-rule="evenodd" d="M98.432 142.65C98.8743 141.742 99.3801 141.441 100.277 141.044C99.6793 141.609 99.0683 142.132 98.432 142.65ZM99.0792 140.413C98.4439 141.051 96.9882 142.025 97.1923 143.121C97.3783 144.122 98.1416 144.065 98.8337 143.753C100.285 143.099 101.093 140.237 102.612 139.969C100.927 138.9 100.534 138.95 99.0792 140.413Z" fill="#006078"/>
<path fill-rule="evenodd" clip-rule="evenodd" d="M99.3021 83.5829C99.383 86.6303 99.4541 89.6773 99.5211 92.7247C99.5447 93.7957 99.2895 95.3225 99.6103 96.3484C99.7521 96.8002 101.033 98.7592 101.488 98.8859C103.079 99.3294 102.511 95.3348 102.522 94.3514C102.56 91.033 102.512 87.7111 102.498 84.3928C102.491 82.6826 102.973 68.3437 100.758 68.4138C100.376 68.4258 99.4359 70.0652 99.2945 70.3939C98.8493 71.426 99.0132 72.956 99.0233 74.0565C99.0534 77.2306 99.218 80.4091 99.3021 83.5829Z" fill="#006078"/>
<path fill-rule="evenodd" clip-rule="evenodd" d="M112.715 92.4661C112.84 93.3087 112.774 94.7134 113.721 95.1503C114.545 95.5302 114.861 95.0784 115.169 94.3724C115.878 92.7483 115.622 90.2653 115.609 88.586C115.583 85.2579 115.209 81.9439 114.95 78.6285C114.836 77.1736 115.072 75.7126 114.891 74.1901C114.811 73.5222 114.732 70.8348 113.496 70.9601C112.378 71.073 112.478 73.8894 112.418 74.615C111.911 80.6561 111.823 86.436 112.715 92.4661Z" fill="#006078"/>
<path fill-rule="evenodd" clip-rule="evenodd" d="M165.479 161.836C165.005 164.262 157.275 172.711 155.329 167.986C154.174 165.182 156.677 162.13 158.629 160.508C159.837 159.503 161.346 158.517 162.993 158.822C164.39 159.08 165.779 160.295 165.479 161.836ZM161.487 157.484C160.941 157.613 156.378 160.823 156.336 160.781C155.94 160.383 158.818 156.085 159.114 155.709C161.554 152.613 163.174 154.958 164.7 157.392C164.375 155.938 163.481 153.827 161.987 153.212C160.1 152.436 158.629 154.352 157.721 155.729C156.438 157.676 155.731 159.79 155.019 161.987C154.678 163.035 154.291 163.985 153.716 164.93C153.148 165.862 152.153 166.89 152.3 168.069C153.108 167.62 153.537 166.739 154.046 166.014C154.614 166.244 154.419 168.057 154.534 168.519C154.824 169.678 155.615 170.586 156.838 170.785C159.118 171.157 161.58 169.044 163.105 167.609C164.711 166.096 166.44 164.023 166.427 161.696C166.412 159.264 164.024 156.883 161.487 157.484Z" fill="#006078"/>
<path fill-rule="evenodd" clip-rule="evenodd" d="M167.669 118.5C166.376 120.483 164.105 122.861 161.703 123.321C159.94 123.66 158.777 122.351 159.485 120.584C160.084 119.09 162.122 118.147 163.458 117.49C164.518 116.969 169.46 115.755 167.669 118.5ZM166.718 115.256C164.067 115.156 161.93 117.075 159.954 118.607C160.4 116.847 161.409 114.933 162.831 113.788C164.765 112.229 166.599 113.197 168.636 113.976C168.133 112.388 165.878 111.817 164.441 112.041C162.625 112.325 161.318 113.879 160.4 115.381C159.304 117.174 158.929 119.287 157.64 120.968C157.049 121.738 153.392 124.618 154.22 125.795C155.586 124.343 156.952 122.891 158.318 121.438C158.672 123.155 159.062 125.109 161.25 124.942C162.997 124.809 164.99 123.321 166.268 122.184C167.918 120.715 171.165 115.425 166.718 115.256Z" fill="#006078"/>
<path fill-rule="evenodd" clip-rule="evenodd" d="M129.593 132.191C128.471 132.708 125.999 133.41 125.372 131.857C124.5 129.7 127.305 125.915 128.641 124.477C129.462 123.593 130.02 123.136 131.165 123.708C132.079 124.165 133.423 125.464 133.774 126.463C134.527 128.606 131.349 131.382 129.593 132.191ZM132.169 121.828C133.083 122.035 133.195 123.198 132.052 122.751C131.195 122.417 130.996 121.564 132.169 121.828ZM133.316 123.466C132.975 122.423 133.67 120.787 131.988 120.712C131.036 120.67 129.291 121.64 128.459 122.034C127.306 122.58 126.221 123.414 125.619 124.589C125.062 125.678 125.46 125.965 126.31 125.061C126.414 125.132 124.387 130.367 124.369 130.891C124.29 133.288 125.984 134.867 128.364 134.442C130.55 134.051 132.521 132.26 133.724 130.453C134.333 129.538 134.833 128.49 134.879 127.369C134.949 125.65 133.805 124.959 133.316 123.466Z" fill="#006078"/>
<path fill-rule="evenodd" clip-rule="evenodd" d="M146.934 118.688C145.02 117.812 142.883 120.807 143.805 122.587C145.016 124.92 150.92 120.513 146.934 118.688ZM144.652 122.036C144.254 121.327 146.958 120.281 147.385 120.264C147.172 120.655 145.198 123.009 144.652 122.036Z" fill="#006078"/>
<path fill-rule="evenodd" clip-rule="evenodd" d="M16.6591 116.975C16.5522 116.216 14.856 117.317 14.8658 117.805C15.1464 117.243 16.8817 118.554 16.6591 116.975Z" fill="#006078"/>
<path fill-rule="evenodd" clip-rule="evenodd" d="M109.43 59.6955C111.59 59.5364 108.838 48.6238 107.265 49.5887C105.558 50.6347 107.448 59.8411 109.43 59.6955Z" fill="#006078"/>
<path fill-rule="evenodd" clip-rule="evenodd" d="M113.463 54.5998C115.486 54.89 115.165 50.2366 114.077 49.4039C112.068 47.8666 111.007 54.2475 113.463 54.5998Z" fill="#006078"/>
</g>
<defs>
<clipPath id="clip0_137_1913">
<rect width="215.517" height="250" fill="white"/>
</clipPath>
</defs>
</svg>
