<?xml version="1.0" encoding="UTF-8"?>
<svg id="Capa_2" data-name="Capa 2" xmlns="http://www.w3.org/2000/svg" viewBox="0 0 1828.35 2005.08">
  <defs>
    <style>
      .cls-1 {
        fill: #916e29;
      }

      .cls-1, .cls-2 {
        stroke-width: 0px;
      }

      .cls-2 {
        fill: #006178;
      }
    </style>
  </defs>
  <g id="Capa_1-2" data-name="Capa 1">
    <g>
      <path class="cls-1" d="m1175.02,111.52C1107.96,42.31,1015.85,0,914.18,0s-194.29,42.31-260.84,111.52c-67.07,68.66-108.08,163.71-108.08,269.17,0,150.54,172.5,431.79,293.87,629.02,28.74,47.25,54.81,89.54,75.05,124.15,19.69-34.61,45.78-76.9,75.05-124.15,120.85-197.23,293.86-478.48,293.86-629.02,0-105.47-41.52-200.51-108.07-269.17Zm-260.84,517.47c-143.28,0-259.43-119.87-259.43-267.73s116.15-267.73,259.43-267.73,259.43,119.87,259.43,267.73-116.15,267.73-259.43,267.73Z"/>
      <g>
        <path class="cls-2" d="m932.21,390.47c-5.6,4.4-12.57,7.04-20.15,7.04-18.4,0-33.32-15.4-33.32-34.39,0-6.11,1.56-11.84,4.27-16.81l-28.35-25.44c-26.87,71.38-53.73,142.75-80.6,214.13,62.85-39.08,125.7-78.16,188.55-117.24l-30.4-27.28Z"/>
        <path class="cls-2" d="m854.26,320.51l28.75,25.8c5.71-10.48,16.57-17.58,29.05-17.58,18.4,0,33.32,15.4,33.32,34.39,0,11.17-5.18,21.07-13.18,27.35l30,26.92c30.69-76.62,61.38-153.25,92.07-229.88-66.67,44.33-133.35,88.66-200.02,132.99Z"/>
      </g>
      <g>
        <g>
          <path class="cls-2" d="m902.2,1416.08s-385.6-161.22-706.29,11.6l-4.9-150.66s32.62-9.02,67.69-6.7l7.3,80.83s299.37-125.51,636.21,64.93"/>
          <path class="cls-2" d="m902.2,1416.08s-379.92-271.56-810.07-152.61l42.17-786.21s20.47-2.27,82.48,3.6l-36.17,666.45s463.62,3.29,721.6,268.76"/>
          <path class="cls-2" d="m902.2,1416.08c-253.54-370.62-667.34-349.49-667.34-349.49l35.04-654.2c33.95.85,65.84,4.67,95.64,10.7,52.16,10.55,97.95,27.86,137.29,47.89l-8.63,99.25s-56.55-64.22-145.69-46.97l-28.56,453.33s333.66-17.76,582.25,439.5Z"/>
        </g>
        <g>
          <path class="cls-2" d="m925.96,1415.27s385.79-160.76,706.28,12.45l5.08-150.66s-32.61-9.06-67.68-6.78l-7.4,80.82s-299.21-125.87-636.29,64.16"/>
          <path class="cls-2" d="m925.96,1415.27s380.25-271.1,810.26-151.63l-41.22-786.26s-20.47-2.29-82.48,3.51l35.37,666.49s-463.62,2.73-721.92,267.89"/>
          <path class="cls-2" d="m925.96,1415.27c253.98-370.31,667.77-348.69,667.77-348.69l-34.25-654.24c-33.95.81-65.84,4.59-95.66,10.58-52.17,10.48-97.98,27.74-137.34,47.72l8.51,99.26s56.62-64.15,145.75-46.79l28.01,453.36s-333.64-18.16-582.78,438.8Z"/>
        </g>
      </g>
    </g>
    <path class="cls-1" d="m130.71,1999.87c-10.76,0-20.66-.87-29.68-2.6-8.68-1.39-16.66-3.47-23.95-6.25-7.29-2.78-13.71-5.73-19.27-8.85-5.55-3.47-10.07-7.12-13.54-10.94-4.86-4.51-8.51-9.37-10.94-14.58-2.43-5.21-3.65-10.94-3.65-17.18v-267.66h57.28l-5.73,16.66c5.21,4.86,9.03,11.46,11.46,19.79,2.43,7.98,3.65,17.18,3.65,27.6v199.44c2.78,1.04,5.55,1.91,8.33,2.6,3.12.69,6.6,1.39,10.41,2.08,3.82.35,8.16.52,13.02.52,13.54,0,25.69-1.74,36.45-5.21,10.76-3.82,19.09-9.72,25-17.71,6.25-8.33,9.37-18.57,9.37-30.72v-5.21c0-8.33-2.08-15.8-6.25-22.39-3.82-6.94-10.24-13.02-19.27-18.23-9.03-5.55-21.35-10.41-36.97-14.58h-26.56v-13.54l103.63,5.73v9.37c14.93,5.9,26.73,14.41,35.41,25.52,8.68,11.11,13.02,23.43,13.02,36.97v4.69c0,22.57-5.9,41.66-17.71,57.28-11.8,15.62-27.6,27.43-47.39,35.41-19.79,7.98-41.83,11.98-66.13,11.98ZM2.08,1630.14c23.95-4.17,47.73-6.94,71.34-8.33,23.61-1.39,46-2.08,67.18-2.08s39.06,3.12,54.68,9.37c15.62,6.25,28.64,14.58,39.06,25,10.76,10.07,18.75,21.35,23.95,33.85,5.21,12.5,7.81,25.17,7.81,38.01v5.73c0,17.71-3.65,33.67-10.94,47.91-6.94,14.23-16.84,26.56-29.68,36.97-12.84,10.07-27.77,17.88-44.78,23.43-16.66,5.55-34.72,8.33-54.16,8.33-5.9,0-11.11-.69-15.62-2.08-4.51-1.39-8.33-3.65-11.46-6.77l-13.02,1.04v-47.39c4.86,2.78,9.2,4.69,13.02,5.73,3.82,1.04,9.37,1.56,16.66,1.56,18.05,0,33.5-2.6,46.35-7.81,12.85-5.21,22.74-12.85,29.68-22.91,7.29-10.41,10.94-23.26,10.94-38.53v-4.69c0-7.29-.69-13.71-2.08-19.27-1.04-5.55-2.95-10.76-5.73-15.62-8.33-3.12-17.71-5.38-28.12-6.77-10.07-1.39-21.7-2.08-34.89-2.08-18.75,0-35.93.87-51.55,2.6-15.62,1.74-28.64,3.47-39.06,5.21-10.41,1.74-17.53,2.6-21.35,2.6-6.94,0-12.15-3.3-15.62-9.89-3.12-6.6-4.69-16.84-4.69-30.72,0-4.17.17-7.98.52-11.46.35-3.82.87-7.46,1.56-10.94Zm454.4-10.41c27.77,0,51.03,6.94,69.78,20.83,18.75,13.89,32.98,34.37,42.7,61.45,9.72,27.08,14.58,60.75,14.58,101.02v10.41c0,40.62-5.21,75.16-15.62,103.63-10.41,28.47-25.17,50.34-44.26,65.61-18.75,14.93-40.96,22.39-66.66,22.39-28.47,0-52.42-6.6-71.86-19.79-19.09-13.54-33.5-33.5-43.22-59.89-9.72-26.38-14.58-58.84-14.58-97.38v-10.41c0-42.01,5.21-77.76,15.62-107.27,10.41-29.51,25.34-51.9,44.78-67.18,19.44-15.62,42.35-23.43,68.74-23.43Zm-66.13,217.15c0,24.3,2.26,44.61,6.77,60.93,4.51,16.32,9.72,28.64,15.62,36.97,6.6,2.78,12.67,4.86,18.23,6.25,5.9,1.04,12.67,1.56,20.31,1.56,15.28,0,28.12-5.38,38.53-16.14,10.41-11.11,18.05-27.08,22.91-47.91,5.21-21.18,7.81-46.69,7.81-76.55v-8.33c0-17.01-1.04-32.11-3.12-45.3-2.08-13.19-4.86-24.47-8.33-33.85-3.47-9.72-7.29-17.71-11.46-23.95-6.6-3.47-12.67-5.73-18.23-6.77-5.21-1.04-11.8-1.56-19.79-1.56-15.27,0-28.12,5.73-38.53,17.18-10.41,11.46-18.23,28.12-23.43,49.99-4.86,21.87-7.29,48.25-7.29,79.15v8.33Zm378.38-217.15c27.77,0,51.03,6.94,69.78,20.83,18.75,13.89,32.98,34.37,42.7,61.45,9.72,27.08,14.58,60.75,14.58,101.02v10.41c0,40.62-5.21,75.16-15.62,103.63-10.41,28.47-25.17,50.34-44.26,65.61-18.75,14.93-40.97,22.39-66.65,22.39-28.47,0-52.42-6.6-71.86-19.79-19.09-13.54-33.5-33.5-43.22-59.89-9.72-26.38-14.58-58.84-14.58-97.38v-10.41c0-42.01,5.21-77.76,15.62-107.27,10.41-29.51,25.34-51.9,44.78-67.18,19.44-15.62,42.35-23.43,68.74-23.43Zm-66.13,217.15c0,24.3,2.26,44.61,6.77,60.93,4.51,16.32,9.72,28.64,15.62,36.97,6.6,2.78,12.67,4.86,18.23,6.25,5.9,1.04,12.67,1.56,20.31,1.56,15.27,0,28.12-5.38,38.53-16.14,10.41-11.11,18.05-27.08,22.91-47.91,5.21-21.18,7.81-46.69,7.81-76.55v-8.33c0-17.01-1.04-32.11-3.12-45.3-2.08-13.19-4.86-24.47-8.33-33.85-3.47-9.72-7.29-17.71-11.46-23.95-6.6-3.47-12.67-5.73-18.23-6.77-5.21-1.04-11.8-1.56-19.79-1.56-15.27,0-28.12,5.73-38.53,17.18-10.41,11.46-18.23,28.12-23.43,49.99-4.86,21.87-7.29,48.25-7.29,79.15v8.33Zm394.52-35.41c10.41,17.71,21,35.58,31.77,53.64,11.11,18.05,21.87,35.93,32.29,53.64,5.56,9.37,11.11,16.14,16.66,20.31,5.56,4.17,11.29,6.25,17.18,6.25,4.86,0,9.02-.52,12.5-1.56,3.47-1.39,6.42-3.12,8.85-5.21h3.12c.35,2.43.69,4.86,1.04,7.29.69,2.43,1.04,5.03,1.04,7.81.35,2.43.52,5.21.52,8.33v9.37c0,7.64-.87,14.41-2.6,20.31-1.73,5.9-4.34,10.59-7.81,14.06-2.08,2.08-4.52,3.82-7.29,5.21-2.77,1.39-6.08,2.43-9.89,3.12-3.47.69-7.29,1.04-11.46,1.04-7.98,0-15.45-1.39-22.39-4.17-6.94-2.78-13.54-7.29-19.79-13.54-6.25-6.6-12.5-15.1-18.75-25.52-5.56-8.33-10.77-16.49-15.62-24.47-4.86-8.33-9.54-16.66-14.06-25-4.17-8.68-8.5-17.71-13.02-27.08-4.17-9.37-8.33-19.44-12.5-30.2h-16.66l46.87-53.64Zm59.36-176.53c12.5,0,22.74,1.39,30.72,4.17,7.98,2.78,14.06,6.25,18.23,10.41,4.17,4.17,6.25,9.03,6.25,14.58s-.52,11.46-1.56,17.71c-1.04,5.9-2.95,12.85-5.73,20.83-2.77,7.98-6.94,17.88-12.5,29.68-4.86,11.46-11.11,22.74-18.75,33.85-7.29,10.76-15.62,21.35-25,31.77-9.02,10.07-18.92,19.61-29.68,28.64-10.41,8.68-21.35,17.01-32.81,25-11.11,7.64-22.39,14.58-33.85,20.83-11.46,5.9-22.74,10.94-33.85,15.1v-58.32h15.1c5.56-4.51,10.94-9.03,16.14-13.54,5.56-4.86,10.94-10.07,16.14-15.62,5.21-5.9,10.24-11.98,15.1-18.23,5.21-6.6,10.24-13.54,15.1-20.83,7.29-10.07,14.23-21.52,20.83-34.37,6.6-12.85,12.5-26.91,17.71-42.18,5.56-15.28,10.24-31.77,14.06-49.47h8.33Zm-197.36,4.17c4.86-1.04,9.37-1.91,13.54-2.6,4.17-.69,8.85-1.04,14.06-1.04,16.31,0,27.6,4.34,33.85,13.02,6.25,8.68,9.37,19.79,9.37,33.33v324.42c-4.17,1.04-7.98,1.74-11.46,2.08-3.47.69-7.64,1.04-12.5,1.04-13.19,0-23.43-3.47-30.72-10.41-6.94-7.29-10.41-20.83-10.41-40.62v-262.45c0-10.07-.35-19.79-1.04-29.16-.69-9.72-2.26-18.92-4.69-27.6Zm466.38,316.61h-56.24l5.73-16.66c-5.21-3.82-9.2-9.55-11.98-17.18-2.78-7.64-4.17-16.66-4.17-27.08v-205.69h56.24l-5.73,16.66c5.21,3.82,9.19,9.55,11.98,17.18,2.77,7.64,4.17,16.66,4.17,27.08v205.69Zm93.21,48.95h-228.61c-4.87,0-9.03-.87-12.5-2.6-3.47-1.74-6.25-4.17-8.33-7.29-2.08-3.47-3.65-7.46-4.69-11.98-1.04-4.51-1.56-9.72-1.56-15.62,0-3.47.17-6.6.52-9.37.34-3.12.69-6.08,1.04-8.85.34-2.78.86-5.21,1.56-7.29h194.76c15.96,0,28.29,2.08,36.97,6.25,8.67,3.82,14.75,9.2,18.23,16.14,3.46,6.6,5.21,14.06,5.21,22.39,0,2.08-.18,4.17-.52,6.25-.35,2.08-.7,4.17-1.04,6.25-.35,1.74-.7,3.65-1.04,5.73Zm-253.08-364.52h229.13c11.11,0,18.23,3.82,21.35,11.46,3.46,7.29,5.21,16.66,5.21,28.12,0,1.74-.18,3.65-.52,5.73,0,1.74-.18,3.65-.52,5.73-.35,2.08-.7,4.17-1.04,6.25-.35,1.74-.87,3.65-1.56,5.73h-193.72c-20.83,0-36.28-3.47-46.35-10.41-9.72-7.29-14.58-18.92-14.58-34.89v-4.69c.34-1.74.52-3.3.52-4.69.34-1.74.69-3.3,1.04-4.69.34-1.74.69-2.95,1.04-3.65Zm302.86,0h229.13c8.33,0,14.58,2.43,18.75,7.29,4.52,4.51,7.47,10.07,8.85,16.66,1.74,6.25,2.6,11.63,2.6,16.14,0,4.86-.17,9.2-.52,13.02-.34,3.47-1.21,6.77-2.6,9.89h-237.46c-5.21,0-9.37-2.08-12.5-6.25-2.77-4.17-4.86-9.37-6.25-15.62-1.04-6.25-1.56-12.67-1.56-19.27,0-3.47.18-7.12.52-10.94.35-3.82.7-7.46,1.04-10.94Zm68.22,164.03h127.06c7.99,0,14.41,2.08,19.27,6.25,5.21,3.82,8.85,8.85,10.94,15.1,2.08,6.25,3.12,12.84,3.12,19.79v5.21c0,1.74-.17,3.3-.52,4.69,0,1.39-.17,2.78-.52,4.17h-159.35v-55.2Zm24.47,200.49c-9.02,0-17.52-1.56-25.52-4.69-7.98-3.47-15.1-7.99-21.35-13.54-6.25-5.9-11.11-12.15-14.58-18.75-3.47-6.6-5.21-13.19-5.21-19.79v-257.25h56.24l-5.73,15.1c5.91,4.17,10.07,9.55,12.5,16.14,2.43,6.6,3.65,14.75,3.65,24.48v195.28h120.81c12.85,0,23.78,3.12,32.81,9.37,9.03,5.9,13.54,15.8,13.54,29.68,0,4.51-.34,9.03-1.04,13.54-.34,4.17-.86,7.64-1.56,10.41h-164.55Z"/>
  </g>
</svg>